<?xml version="1.0" encoding="utf-8"?>
<!-- Generator: Adobe Illustrator 18.0.0, SVG Export Plug-In . SVG Version: 6.00 Build 0)  -->
<!DOCTYPE svg PUBLIC "-//W3C//DTD SVG 1.1//EN" "http://www.w3.org/Graphics/SVG/1.1/DTD/svg11.dtd">
<svg version="1.1" id="图层_1" xmlns="http://www.w3.org/2000/svg" xmlns:xlink="http://www.w3.org/1999/xlink" x="0px" y="0px"
	 viewBox="0 0 1000 1000" style="enable-background:new 0 0 1000 1000;" xml:space="preserve">
<style type="text/css">
	.st0{fill:#040000;}
	.st1{fill:none;stroke:#040000;stroke-width:50;stroke-miterlimit:10;}
	.st2{enable-background:new    ;}
</style>
<g>
	<path class="st0" d="M498.9,625.8c-116.6,0-211.5-94.9-211.5-211.5c0-116.6,94.9-211.5,211.5-211.5s211.5,94.9,211.5,211.5
		C710.4,531,615.5,625.8,498.9,625.8z M498.9,252.8c-89.1,0-161.5,72.5-161.5,161.5s72.5,161.5,161.5,161.5s161.5-72.5,161.5-161.5
		S588,252.8,498.9,252.8z"/>
</g>
<g>
	<path class="st0" d="M217.6,902.7c-13.8,0-25-11.2-25-25c0-80.6,31.4-156.5,88.5-213.5s132.9-88.5,213.5-88.5
		c53.3,0,105.6,14.1,151.4,40.7c11.9,6.9,16,22.2,9,34.2c-6.9,11.9-22.2,16-34.2,9c-38.2-22.2-81.8-33.9-126.3-33.9
		c-138.9,0-252,113-252,252C242.6,891.5,231.4,902.7,217.6,902.7z"/>
</g>
<g>
	<path class="st0" d="M629.5,903.5c-10.3,0-19.4,0-27.5,0c-13.2,0-23.5-0.1-30.6-0.2c-14.9-0.2-21.7-0.4-29.2-7.8
		c-9.8-9.8-9.8-25.6,0-35.4c5.9-5.9,13.9-8.2,21.5-7c17.4,0.9,168.4,0.3,261.3-0.3c0.1,0,0.1,0,0.2,0c13.7,0,24.9,11.1,25,24.8
		c0.1,13.8-11,25.1-24.8,25.2c-0.7,0-66.7,0.4-132.1,0.7C668.9,903.4,647.5,903.5,629.5,903.5z"/>
</g>
<g>
	<path class="st0" d="M812.8,837.4C812.8,837.4,812.7,837.4,812.8,837.4c-13.9,0-25-11.3-25-25.1c0.2-69,0.4-173.8,0.1-185.3
		c-0.6-7.1,1.8-14.4,7.2-19.9c7.2-7.2,17.9-9.3,27.3-5.4c7.1,3,14.9,10.4,15.4,22.5c0,0.5,0,1.2,0.1,2.2c0,1.5,0.1,3.6,0.1,6.3
		c0,5.2,0.1,12.6,0.1,21.4c0,15.6,0,37.3,0,64.6c-0.1,46.4-0.2,93.3-0.2,93.7C837.7,826.2,826.6,837.4,812.8,837.4z M788,627.9
		c0.7,6.6,4.6,14.1,12.1,18.5c-1.8-1-3.4-2.3-5-3.9C791,638.4,788.6,633.2,788,627.9z"/>
</g>
<g>
	<path class="st0" d="M734.9,837.4c-0.1,0-0.1,0-0.2,0c-13.8-0.1-24.9-11.4-24.8-25.2c0.2-29.3,0.4-62,0.2-68.7
		c-0.8-6.7,1.1-13.6,5.9-19.1c6.8-8,17.9-10.8,27.8-7.1c3.6,1.4,15.5,7,16.3,23c0,0.7,0.1,1.8,0.1,3.1c0,2,0.1,4.8,0.1,8.6
		c0,6,0,14.4,0,24.9c-0.1,17.8-0.2,35.7-0.2,35.9C759.7,826.3,748.6,837.4,734.9,837.4z M710.3,745.5c0.1,0.7,0.3,1.5,0.6,2.3
		C710.7,747.1,710.5,746.3,710.3,745.5z"/>
</g>
<g>
	<path class="st0" d="M654.1,837.4c0,0-0.1,0-0.1,0c-13.8-0.1-24.9-11.3-24.9-25.1c0.2-39.6,0.4-104.2,0.1-113.6
		c-0.7-7.2,1.7-14.7,7.2-20.2c7.2-7.2,18-9.3,27.3-5.4c4.5,1.9,15,7.9,15.5,23.6c0,1,0.1,2.4,0.1,4.2c0,3.3,0.1,7.9,0.1,13.5
		c0,9.7,0,23.2,0,40.1c-0.1,28.7-0.2,57.8-0.2,58.1C679,826.3,667.8,837.4,654.1,837.4z M629.4,699.7c0.9,6.4,4.7,13.6,11.9,17.8
		c-1.7-1-3.4-2.3-4.9-3.8C632.5,709.8,630.1,704.8,629.4,699.7z"/>
</g>
<g>
	<path class="st0" d="M574.6,837.4c-0.1,0-0.2,0-0.3,0c-13.8-0.1-24.9-11.4-24.7-25.3c0.2-22.7,0.4-48.3,0.2-54.3
		c-0.9-7.4,1.5-15.1,7.1-20.7c7.2-7.2,18-9.3,27.4-5.4c3.4,1.4,14.4,7.2,15.4,22.2c0,0.7,0.1,1.6,0.1,2.8c0,1.7,0.1,4,0.1,7
		c0,4.9,0,11.6,0,20c-0.1,14.3-0.2,28.7-0.2,28.8C599.5,826.3,588.3,837.4,574.6,837.4z"/>
</g>
</svg>
