<?xml version="1.0" encoding="utf-8"?>
<!-- Generator: Adobe Illustrator 18.0.0, SVG Export Plug-In . SVG Version: 6.00 Build 0)  -->
<!DOCTYPE svg PUBLIC "-//W3C//DTD SVG 1.1//EN" "http://www.w3.org/Graphics/SVG/1.1/DTD/svg11.dtd">
<svg version="1.1" id="图层_1" xmlns="http://www.w3.org/2000/svg" xmlns:xlink="http://www.w3.org/1999/xlink" x="0px" y="0px"
	 viewBox="0 0 1000 1000" style="enable-background:new 0 0 1000 1000;" xml:space="preserve">
<style type="text/css">
	.st0{fill:#040000;}
	.st1{fill:none;stroke:#040000;stroke-width:50;stroke-miterlimit:10;}
	.st2{enable-background:new    ;}
</style>
<g>
	<path class="st0" d="M636.4,944.1H251.7c-13.8,0-25-11.2-25-25s11.2-25,25-25h164.4v-113c0-13.8,11.2-25,25-25h332.1v-362
		c-85.5-1-394-0.2-618.3,0.7v361.3h73.3l125.1-171c7.6-10.4,21.8-13.3,32.8-6.8l75.7,44.5l100-95.2c10-9.5,25.8-9.1,35.3,0.9
		c9.5,10,9.1,25.8-0.9,35.3L482.7,672.1c-8.1,7.7-20.3,9.1-29.9,3.4l-72.5-42.6l-119.3,163c-4.7,6.4-12.2,10.2-20.2,10.2H130
		c-13.8,0-25-11.2-25-25V369.9c0-13.8,11.1-24.9,24.9-25c1.7,0,168.3-0.7,333.2-1c96.8-0.2,174.1-0.2,229.7-0.1
		c33,0.1,58.7,0.2,76.3,0.4c9.5,0.1,16.9,0.2,21.9,0.3c10.2,0.3,17.7,0.5,25,7.7c4.7,4.7,7.4,11.1,7.4,17.7v411.2
		c0,13.8-11.2,25-25,25H466.1v88h170.3c13.8,0,25,11.2,25,25S650.2,944.1,636.4,944.1z"/>
</g>
<g>
	<path class="st0" d="M639.8,574.2c-46.6,0-84.6-37.9-84.6-84.6s37.9-84.6,84.6-84.6s84.6,37.9,84.6,84.6S686.5,574.2,639.8,574.2z
		 M639.8,455c-19.1,0-34.6,15.5-34.6,34.6s15.5,34.6,34.6,34.6s34.6-15.5,34.6-34.6S658.9,455,639.8,455z"/>
</g>
</svg>
