<?xml version="1.0" encoding="utf-8"?>
<!-- Generator: Adobe Illustrator 18.0.0, SVG Export Plug-In . SVG Version: 6.00 Build 0)  -->
<!DOCTYPE svg PUBLIC "-//W3C//DTD SVG 1.1//EN" "http://www.w3.org/Graphics/SVG/1.1/DTD/svg11.dtd">
<svg version="1.1" id="图层_1" xmlns="http://www.w3.org/2000/svg" xmlns:xlink="http://www.w3.org/1999/xlink" x="0px" y="0px"
	 viewBox="0 0 1000 1000" style="enable-background:new 0 0 1000 1000;" xml:space="preserve">
<style type="text/css">
	.st0{fill:#040000;}
	.st1{fill:none;stroke:#040000;stroke-width:50;stroke-miterlimit:10;}
	.st2{enable-background:new    ;}
</style>
<g>
	<path class="st0" d="M577.8,714.7h-80.9c-82.1,0-148.9-66.8-148.9-148.9V202.3c0-13.8,11.2-25,25-25h328.7c13.8,0,25,11.2,25,25
		v363.5C726.7,647.9,659.9,714.7,577.8,714.7z M398,227.3v338.5c0,54.5,44.4,98.9,98.9,98.9h80.9c54.5,0,98.9-44.4,98.9-98.9V227.3
		H398z"/>
</g>
<g>
	<path class="st0" d="M356.5,545.9L205.6,414.2c-5.4-4.7-8.6-11.6-8.6-18.8V268.7c0-13.8,11.2-25,25-25h152v50h-127V384l142.3,124.3
		L356.5,545.9z"/>
</g>
<g>
	<path class="st0" d="M720.1,545.9l-32.9-37.7L829.4,384v-90.3h-127v-50h152c13.8,0,25,11.2,25,25v126.7c0,7.2-3.1,14.1-8.6,18.8
		L720.1,545.9z"/>
</g>
<g>
	<path class="st0" d="M702.5,894.8H364c-13.8,0-25-11.2-25-25s11.2-25,25-25h148.3V689.7c0-13.8,11.2-25,25-25s25,11.2,25,25v155.1
		h140.1c13.8,0,25,11.2,25,25S716.3,894.8,702.5,894.8z"/>
</g>
<g>
	<path class="st0" d="M616.3,449.1c-13.8,0-25-11.2-25-25V311.8c0-13.8,11.2-25,25-25s25,11.2,25,25v112.3
		C641.3,437.9,630.1,449.1,616.3,449.1z"/>
</g>
</svg>
