<?xml version="1.0" encoding="utf-8"?>
<!-- Generator: Adobe Illustrator 18.0.0, SVG Export Plug-In . SVG Version: 6.00 Build 0)  -->
<!DOCTYPE svg PUBLIC "-//W3C//DTD SVG 1.1//EN" "http://www.w3.org/Graphics/SVG/1.1/DTD/svg11.dtd">
<svg version="1.1" id="图层_1" xmlns="http://www.w3.org/2000/svg" xmlns:xlink="http://www.w3.org/1999/xlink" x="0px" y="0px"
	 viewBox="0 0 1000 1000" style="enable-background:new 0 0 1000 1000;" xml:space="preserve">
<style type="text/css">
	.st0{fill:#040000;}
	.st1{fill:none;stroke:#040000;stroke-width:50;stroke-miterlimit:10;}
	.st2{enable-background:new    ;}
</style>
<g>
	<path class="st0" d="M185.6,444c-2,0-4.1-0.2-6.1-0.8c-13.4-3.4-21.5-17-18.1-30.4c19.3-76.4,64.1-145.5,126.3-194.6
		c31.1-24.6,65.8-43.7,103-56.9c38.5-13.6,78.9-20.5,120.2-20.5c122.6,0,233.9,62,299.4,159.6V258c0-13.8,11.2-25,25-25c0,0,0,0,0,0
		c13.8,0,25,11.2,25,25v157.9c0,12.6-9.3,23.2-21.8,24.8c-12.5,1.6-24.2-6.3-27.4-18.4C775.2,286,651.7,190.8,510.8,190.8
		c-142.4,0-266.1,96.3-301,234.2C206.9,436.4,196.8,444,185.6,444z"/>
</g>
<g>
	<path class="st0" d="M510.8,861.6c-41.3,0-81.9-6.9-120.5-20.6c-37.3-13.2-72-32.5-103.2-57.2c-33.5-26.5-61.9-58.8-83.9-94.9V721
		c0,13.8-11.2,25-25,25c-13.8,0-25-11.2-25-25V544.5c0-13.2,10.2-24.1,23.4-24.9c13.2-0.8,24.7,8.7,26.4,21.8
		c1.5,11.4,3.6,22.9,6.6,35.2c34.4,138.5,158.2,235.2,301.2,235.2c156.6,0,289.1-117.1,308.1-272.3c1.7-13.7,14.1-23.5,27.9-21.8
		c13.7,1.7,23.5,14.1,21.8,27.9C846.4,725.7,692.6,861.6,510.8,861.6z"/>
</g>
<g class="st2">
	<g>
		<path class="st0" d="M524,784.6L524,784.6c-9.2,0-16.6-7.4-16.6-16.6v-47.6c-43.2,0-79.1-8.9-107.5-26.7v-57.2
			c28.4,23.3,64.3,35.8,107.5,37.5V521.9c-45.7-21.4-75.4-41.4-89-60c-13.6-18.6-20.5-40.6-20.5-66c0-29.6,10.2-55.3,30.6-77.2
			c20.4-21.9,46.7-35,78.9-39.4v-38.8c0-9.2,7.4-16.6,16.6-16.6l0,0c9.2,0,16.6,7.4,16.6,16.6v37.7c41.5,1.5,69.8,7.4,84.7,17.6
			v55.7c-21.8-16.7-50-25.7-84.7-27v157c42.8,19.5,72.3,39,88.4,58.4c16.1,19.4,24.2,41.3,24.2,65.5c0,30.5-10.1,55.6-30.4,75.2
			c-20.3,19.6-47.7,32-82.2,37.1V768C540.6,777.2,533.2,784.6,524,784.6z M507.4,326.2c-36.4,8-54.6,29.1-54.6,63.4
			c0,16.5,3.9,30.1,11.7,40.9c7.8,10.8,22.1,22,42.9,33.6V326.2z M540.6,671.7c38.5-8.3,57.7-28.9,57.7-61.7
			c0-27.5-19.2-51.5-57.7-71.9V671.7z"/>
	</g>
</g>
</svg>
