<?xml version="1.0" encoding="utf-8"?>
<!-- Generator: Adobe Illustrator 18.0.0, SVG Export Plug-In . SVG Version: 6.00 Build 0)  -->
<!DOCTYPE svg PUBLIC "-//W3C//DTD SVG 1.1//EN" "http://www.w3.org/Graphics/SVG/1.1/DTD/svg11.dtd">
<svg version="1.1" id="图层_1" xmlns="http://www.w3.org/2000/svg" xmlns:xlink="http://www.w3.org/1999/xlink" x="0px" y="0px"
	 viewBox="0 0 1000 1000" style="enable-background:new 0 0 1000 1000;" xml:space="preserve">
<style type="text/css">
	.st0{fill:#040000;}
	.st1{fill:none;stroke:#040000;stroke-width:50;stroke-miterlimit:10;}
	.st2{enable-background:new    ;}
</style>
<g>
	<path class="st0" d="M773,823.3H161.7c-20.2,0-36.7-16.5-36.7-36.7V367.2c0-20.2,16.5-36.7,36.7-36.7H773
		c20.2,0,36.7,16.5,36.7,36.7v419.3C809.7,806.8,793.2,823.3,773,823.3z M175,773.3h584.7V380.5H175V773.3z"/>
</g>
<g>
	<path class="st0" d="M511.8,594.2c-10.4,0-20.1-6.5-23.6-16.9c-4.5-13.1,2.4-27.3,15.5-31.8c68.1-23.5,191.8-65.4,244.7-83.3
		l0.5-0.2c6.5-2.2,10.9-8.3,10.9-15.2v-35.3c0-13.8,11.2-25,25-25s25,11.2,25,25v35.3c0,28.3-18,53.4-44.9,62.5l-0.5,0.2
		C711.6,527.5,588,569.4,520,592.8C517.3,593.7,514.5,594.2,511.8,594.2z"/>
</g>
<g>
	<path class="st0" d="M419.1,594.7c-2.9,0-5.9-0.5-8.8-1.6c-27.1-10.2-63.6-24-101.1-38.1c-53.9-20.3-109.6-41.4-141.4-53.3
		c-25.6-9.6-42.8-34.4-42.8-61.8v-38.6c0-13.8,11.2-25,25-25s25,11.2,25,25v38.6c0,6.7,4.1,12.7,10.3,14.9c0,0,0.1,0,0.1,0
		c31.8,12,87.5,33,141.4,53.4c37.4,14.1,74,27.9,101.1,38.1c12.9,4.9,19.4,19.3,14.6,32.2C438.7,588.5,429.2,594.7,419.1,594.7z"/>
</g>
<g>
	<path class="st0" d="M493.2,653.8H437c-20.2,0-36.7-16.5-36.7-36.7v-83.5c0-20.2,16.5-36.7,36.7-36.7h56.2
		c20.2,0,36.7,16.5,36.7,36.7v83.5C529.9,637.4,513.4,653.8,493.2,653.8z M450.3,603.8h29.6v-56.9h-29.6V603.8z"/>
</g>
<g>
	<path class="st0" d="M602.5,380.5H330c-20.2,0-36.7-16.5-36.7-36.7v-51.2c0-40.8,33.2-74,74-74h197.9c40.8,0,74,33.2,74,74v51.2
		c0,0.1,0,0.3,0,0.4C639,364.2,622.4,380.5,602.5,380.5z M343.3,330.5h246v-37.9c0-13.2-10.8-24-24-24H367.3c-13.2,0-24,10.8-24,24
		V330.5z"/>
</g>
</svg>
