<?xml version="1.0" encoding="utf-8"?>
<!-- Generator: Adobe Illustrator 18.0.0, SVG Export Plug-In . SVG Version: 6.00 Build 0)  -->
<!DOCTYPE svg PUBLIC "-//W3C//DTD SVG 1.1//EN" "http://www.w3.org/Graphics/SVG/1.1/DTD/svg11.dtd">
<svg version="1.1" id="图层_1" xmlns="http://www.w3.org/2000/svg" xmlns:xlink="http://www.w3.org/1999/xlink" x="0px" y="0px"
	 viewBox="0 0 1000 1000" style="enable-background:new 0 0 1000 1000;" xml:space="preserve">
<style type="text/css">
	.st0{fill:#040000;}
	.st1{fill:none;stroke:#040000;stroke-width:50;stroke-miterlimit:10;}
	.st2{enable-background:new    ;}
</style>
<g>
	<path class="st0" d="M842.9,794.9h-565c-35.2,0-63.9-28.7-63.9-63.9V339.7c0-7.9,3.8-15.4,10.1-20.1s14.6-6.1,22.2-3.8l322.7,99
		l305.3-95.3c7.6-2.4,15.9-1,22.3,3.7c6.4,4.7,10.2,12.2,10.2,20.1v387.8C906.8,766.3,878.1,794.9,842.9,794.9z M264,373.5v357.6
		c0,7.6,6.2,13.9,13.9,13.9h565c7.6,0,13.9-6.2,13.9-13.9V377.3l-280.2,87.5c-4.8,1.5-10,1.5-14.8,0L264,373.5z"/>
</g>
<g>
	<path class="st0" d="M360,386.8c-1.7-4.8-1.9-5.3-1.8-48c0-22.5,0.2-48.6,0.3-65.5c0.2-26.1,21.6-47.4,47.7-47.4H729
		c26.3,0,47.7,21.4,47.7,47.7v113h-50V276H408.5c-0.3,43.8-0.4,93.8,0,100c0-0.4-0.2-2.8-1.2-5.7L360,386.8z"/>
</g>
<g>
	<path class="st0" d="M672,373.6H462.3c-13.8,0-25-11.2-25-25s11.2-25,25-25H672c13.8,0,25,11.2,25,25S685.8,373.6,672,373.6z"/>
</g>
<g>
	<path class="st0" d="M310.4,373.6c-9.8,0-19.2-5.9-23.1-15.5l-25.5-62.2c-10.6-25.8,1-55.1,26.4-66.5l247.3-112.6
		c25.4-11.5,55-1,67.4,23.7l46.3,91.1c6.2,12.3,1.3,27.4-11,33.6c-12.3,6.2-27.4,1.3-33.6-11l-46.3-91.2c-0.5-0.9-1.5-1.1-2.2-0.7
		L308.8,274.9c-0.7,0.3-1.2,1.1-0.8,2l25.5,62.2c5.2,12.8-0.9,27.4-13.7,32.6C316.8,373,313.6,373.6,310.4,373.6z"/>
</g>
<g>
	<path class="st0" d="M561.3,601.5c-0.2,0-0.5,0-0.7,0c-8.2-0.2-15.8-4.5-20.3-11.4l-54.7-84.4c-7.5-11.6-4.2-27.1,7.4-34.6
		c11.6-7.5,27.1-4.2,34.6,7.4l34.9,53.9l40.2-55c8.1-11.2,23.8-13.6,34.9-5.4c11.2,8.1,13.6,23.8,5.4,34.9l-61.6,84.4
		C576.7,597.7,569.2,601.5,561.3,601.5z"/>
</g>
<g>
	<path class="st0" d="M641,605.1H484.2c-13.8,0-25-11.2-25-25s11.2-25,25-25H641c13.8,0,25,11.2,25,25S654.8,605.1,641,605.1z"/>
</g>
<g>
	<path class="st0" d="M641,680.4H484.2c-13.8,0-25-11.2-25-25s11.2-25,25-25H641c13.8,0,25,11.2,25,25S654.8,680.4,641,680.4z"/>
</g>
<g>
	<path class="st0" d="M564.7,738.9c-13.8,0-25-11.2-25-25V576.5c0-13.8,11.2-25,25-25s25,11.2,25,25v137.4
		C589.7,727.7,578.5,738.9,564.7,738.9z"/>
</g>
</svg>
