<?xml version="1.0" encoding="utf-8"?>
<!-- Generator: Adobe Illustrator 18.0.0, SVG Export Plug-In . SVG Version: 6.00 Build 0)  -->
<!DOCTYPE svg PUBLIC "-//W3C//DTD SVG 1.1//EN" "http://www.w3.org/Graphics/SVG/1.1/DTD/svg11.dtd">
<svg version="1.1" id="图层_1" xmlns="http://www.w3.org/2000/svg" xmlns:xlink="http://www.w3.org/1999/xlink" x="0px" y="0px"
	 viewBox="0 0 1024 1024" style="enable-background:new 0 0 1024 1024;" xml:space="preserve">
<style type="text/css">
	.st0{fill:none;stroke:#040000;stroke-width:50;stroke-linecap:round;stroke-linejoin:round;stroke-miterlimit:10;}
	.st1{enable-background:new    ;}
	.st2{fill:#040000;}
</style>
<path class="st0" d="M186.7,407.8C223.4,262.4,355,154.7,511.9,154.7c155.7,0,286.6,106.2,324.4,250c0,0,0-161,0-157.8"/>
<path class="st0" d="M844.8,531.2C824.5,697,683.1,825.5,511.9,825.5c-157.3,0-289.3-108.3-325.5-254.3c-3-12.4-5.5-25-7.1-37.9
	v176.6"/>
<g class="st1">
	<path class="st2" d="M525.1,773.4L525.1,773.4c-9.2,0-16.6-7.4-16.6-16.6v-47.6c-43.2,0-79.1-8.9-107.5-26.7v-57.2
		c28.4,23.3,64.3,35.8,107.5,37.5V510.7c-45.7-21.4-75.4-41.4-89-60c-13.6-18.6-20.5-40.6-20.5-66c0-29.6,10.2-55.3,30.6-77.2
		c20.4-21.9,46.7-35,78.9-39.4v-38.8c0-9.2,7.4-16.6,16.6-16.6l0,0c9.2,0,16.6,7.4,16.6,16.6V267c41.5,1.5,69.8,7.4,84.7,17.6v55.7
		c-21.8-16.7-50-25.7-84.7-27v157c42.8,19.5,72.3,39,88.4,58.4c16.1,19.4,24.2,41.3,24.2,65.5c0,30.5-10.1,55.6-30.4,75.2
		c-20.3,19.6-47.7,32-82.2,37.1v50.2C541.7,766,534.3,773.4,525.1,773.4z M508.5,315c-36.4,8-54.6,29.1-54.6,63.4
		c0,16.5,3.9,30.1,11.7,40.9c7.8,10.8,22.1,22,42.9,33.6V315z M541.7,660.5c38.5-8.3,57.7-28.9,57.7-61.7
		c0-27.5-19.2-51.5-57.7-71.9V660.5z"/>
</g>
</svg>
