<?xml version="1.0" encoding="utf-8"?>
<!-- Generator: Adobe Illustrator 18.0.0, SVG Export Plug-In . SVG Version: 6.00 Build 0)  -->
<!DOCTYPE svg PUBLIC "-//W3C//DTD SVG 1.1//EN" "http://www.w3.org/Graphics/SVG/1.1/DTD/svg11.dtd">
<svg version="1.1" id="图层_1" xmlns="http://www.w3.org/2000/svg" xmlns:xlink="http://www.w3.org/1999/xlink" x="0px" y="0px"
	 viewBox="0 0 1000 1000" style="enable-background:new 0 0 1000 1000;" xml:space="preserve">
<style type="text/css">
	.st0{fill:#040000;}
	.st1{fill:none;stroke:#040000;stroke-width:50;stroke-miterlimit:10;}
	.st2{enable-background:new    ;}
</style>
<g>
	<path class="st0" d="M728.9,883.3H250.5c-20.2,0-36.7-16.5-36.7-36.7V251.1c0-20.2,16.5-36.7,36.7-36.7h478.3
		c20.2,0,36.7,16.5,36.7,36.7v595.5C765.6,866.9,749.1,883.3,728.9,883.3z M263.8,833.3h451.8V264.4H263.8V833.3z"/>
</g>
<g>
	<path class="st0" d="M637.1,491C637,491,637,491,637.1,491c-2.3,0-227.5-0.7-286.5-0.3c-0.1,0-0.1,0-0.2,0
		c-13.7,0-24.9-11.1-25-24.8c-0.1-13.8,11-25.1,24.8-25.2c59.2-0.4,284.6,0.3,286.9,0.3c13.8,0,25,11.3,24.9,25.1
		C662,479.8,650.8,491,637.1,491z"/>
</g>
<g>
	<path class="st0" d="M637.1,420.4C637,420.4,637,420.4,637.1,420.4c-2.3,0-227.5-0.7-286.5-0.3c-0.1,0-0.1,0-0.2,0
		c-13.7,0-24.9-11.1-25-24.8c-0.1-13.8,11-25.1,24.8-25.2c59.2-0.4,284.6,0.3,286.9,0.3c13.8,0,25,11.3,24.9,25.1
		C662,409.2,650.8,420.4,637.1,420.4z"/>
</g>
<g>
	<path class="st0" d="M637.1,347.1C637,347.1,637,347.1,637.1,347.1c-2.3,0-227.5-0.7-286.5-0.3c-13.8,0-25.1-11-25.2-24.8
		c-0.1-13.8,11-25.1,24.8-25.2c59.2-0.4,284.6,0.3,286.9,0.3c13.8,0,25,11.3,24.9,25.1C662,336,650.8,347.1,637.1,347.1z"/>
</g>
<g>
	<path class="st0" d="M556.6,563.2c-12.1,0-22.7-8.7-24.7-21c-2.2-13.6,7.1-26.5,20.7-28.6c2.3-0.4,7.6-1.2,80.3-0.3
		c13.8,0.2,24.9,11.5,24.7,25.3c-0.2,13.7-11.3,24.7-25,24.7c-0.1,0-0.2,0-0.3,0c-31.2-0.4-66.6-0.6-72.7-0.2
		C558.6,563.2,557.6,563.2,556.6,563.2z M560.6,562.9c-0.3,0-0.5,0.1-0.8,0.1C560.1,563,560.4,562.9,560.6,562.9z"/>
</g>
<g>
	<path class="st0" d="M427.8,808.7c-78.5,0-142.3-63.8-142.3-142.3s63.8-142.3,142.3-142.3c78.5,0,142.3,63.8,142.3,142.3
		S506.2,808.7,427.8,808.7z M427.8,574.2c-50.9,0-92.3,41.4-92.3,92.3s41.4,92.3,92.3,92.3s92.3-41.4,92.3-92.3
		S478.7,574.2,427.8,574.2z"/>
</g>
<g>
	<polygon class="st0" points="428.8,590.9 407.1,636.3 356.6,642.7 393.1,678.3 384.5,727.6 429.6,705.3 473.5,728.7 465.7,678.9 
		501.4,643.6 451.5,636.3 	"/>
</g>
</svg>
