<?xml version="1.0" encoding="utf-8"?>
<!-- Generator: Adobe Illustrator 18.0.0, SVG Export Plug-In . SVG Version: 6.00 Build 0)  -->
<!DOCTYPE svg PUBLIC "-//W3C//DTD SVG 1.1//EN" "http://www.w3.org/Graphics/SVG/1.1/DTD/svg11.dtd">
<svg version="1.1" id="图层_1" xmlns="http://www.w3.org/2000/svg" xmlns:xlink="http://www.w3.org/1999/xlink" x="0px" y="0px"
	 viewBox="0 0 1000 1000" style="enable-background:new 0 0 1000 1000;" xml:space="preserve">
<style type="text/css">
	.st0{fill:#040000;}
	.st1{fill:none;stroke:#040000;stroke-width:50;stroke-miterlimit:10;}
	.st2{enable-background:new    ;}
</style>
<g>
	<g>
		<path class="st0" d="M682.8,584.6c-4.8,0-9.7-1.4-14-4.3c-11.4-7.7-14.4-23.3-6.7-34.7c27.7-40.9,42.3-88.8,42.3-138.4
			c0-136.6-111.1-247.7-247.7-247.7S209.1,270.6,209.1,407.1c0,13.8-11.2,25-25,25s-25-11.2-25-25c0-79.5,31-154.3,87.2-210.5
			s131-87.2,210.5-87.2s154.3,31,210.5,87.2s87.2,131,87.2,210.5c0,59.7-17.6,117.2-50.9,166.4C698.7,580.7,690.8,584.6,682.8,584.6
			z"/>
	</g>
	<g>
		<path class="st0" d="M549.8,825.8C549.8,825.8,549.8,825.8,549.8,825.8c-67.3,0-119-1.5-153.7-4.6c-55.4-4.8-111-28.8-165.4-71.1
			c-45.2-35.2-80.9-76.7-102.8-105.3c-35.5-46.2-31.3-96.7-17-125.9c10.4-21.1,27.3-33.7,45.2-33.7c1.6,0,3.2,0.1,4.7,0.3
			c21.7,2.7,44.5,23.7,89.9,67.2c22.6,21.6,48.2,46.1,74.4,67.6c29.5,24.1,102.7,38,200.8,38c0.8,0,1.5,0,2.3,0
			c-8.5-14.9-16.9-31-20.4-42.3c-5.1-16-1.2-27.9,3-35c9.9-16.9,29.1-20.7,35.4-21.9c0.1,0,0.3-0.1,0.4-0.1c2.1-0.5,4.2-0.8,6.3-0.8
			c5.3,0,6.6,0,47.2,15.4c20.9,7.9,49,18.8,79.1,30.6c29.5,11.6,57.4,22.6,78.6,31.2c37.1,15,40.5,16.6,44.1,20
			c5.2,4.6,8.4,11.2,8.4,18.7v122.3c0,13.4-10.6,24.5-24.1,25C784.9,821.3,663.6,825.8,549.8,825.8z M157.8,537.3
			c-2.4,3.5-5.3,9.9-6.7,18.8c-1.8,11.5-2.1,34.3,16.3,58.3c42.1,54.7,128.2,147.9,232.9,157c33.3,2.9,83.5,4.4,149.4,4.4
			c82.7,0,169.5-2.4,210.5-3.7v-81.8c-40.8-16.9-159.5-63.4-200.2-78.4c8.1,16.7,23.2,41.7,32.9,56.6c4.8,7.5,5.4,16.9,1.4,24.9
			c-4,7.9-11.9,13.2-20.8,13.7c-0.8,0-19.6,1.2-47.6,1.2c-78.6,0-182.7-8.5-232.4-49.3c-27.7-22.7-54-47.9-77.3-70.1
			c-15.1-14.5-29.4-28.2-41.2-38.3C166.6,543.4,161.1,539.4,157.8,537.3z M545.5,559.2c-0.1,0-0.3,0.1-0.5,0.1
			C545.2,559.3,545.4,559.2,545.5,559.2z"/>
	</g>
	<g>
		<path class="st0" d="M459.7,346.4c-6.3,0-12.5-2.3-17.3-7l-79.8-76.8c-10-9.6-10.3-25.4-0.7-35.3s25.4-10.3,35.3-0.7l62.9,60.5
			l63.6-58.3c10.2-9.3,26-8.7,35.3,1.5c9.3,10.2,8.7,26-1.5,35.3l-80.9,74.2C471.9,344.2,465.8,346.4,459.7,346.4z"/>
	</g>
	<g>
		<path class="st0" d="M461.2,571.2c-13.8,0-25-11.2-25-25V332.5c0-13.8,11.2-25,25-25s25,11.2,25,25v213.7
			C486.2,560,475,571.2,461.2,571.2z"/>
	</g>
	<g>
		<path class="st0" d="M540.6,401.5H373.8c-13.8,0-25-11.2-25-25s11.2-25,25-25h166.8c13.8,0,25,11.2,25,25S554.4,401.5,540.6,401.5
			z"/>
	</g>
	<g>
		<path class="st0" d="M540.6,480.8H373.8c-13.8,0-25-11.2-25-25s11.2-25,25-25h166.8c13.8,0,25,11.2,25,25S554.4,480.8,540.6,480.8
			z"/>
	</g>
</g>
</svg>
