<?xml version="1.0" encoding="utf-8"?>
<!-- Generator: Adobe Illustrator 18.0.0, SVG Export Plug-In . SVG Version: 6.00 Build 0)  -->
<!DOCTYPE svg PUBLIC "-//W3C//DTD SVG 1.1//EN" "http://www.w3.org/Graphics/SVG/1.1/DTD/svg11.dtd">
<svg version="1.1" id="图层_1" xmlns="http://www.w3.org/2000/svg" xmlns:xlink="http://www.w3.org/1999/xlink" x="0px" y="0px"
	 viewBox="0 0 1000 1000" style="enable-background:new 0 0 1000 1000;" xml:space="preserve">
<style type="text/css">
	.st0{fill:#040000;}
	.st1{fill:none;stroke:#040000;stroke-width:50;stroke-miterlimit:10;}
	.st2{enable-background:new    ;}
</style>
<g>
	<path class="st0" d="M741.9,847.9c-2.3,0-4.6-0.3-6.9-1l-192.7-55.5c-13.3-3.8-20.9-17.7-17.1-30.9c3.8-13.3,17.7-20.9,30.9-17.1
		l164.2,47.3l55.8-506.8L197,597.3l136.8,53.4c12.9,5,19.2,19.5,14.2,32.4c-5,12.9-19.5,19.2-32.4,14.2l-187-73
		c-9.1-3.5-15.3-12-15.9-21.7s4.5-18.9,13.1-23.5l668.6-361.9c8.2-4.4,18.1-3.9,25.9,1.2c7.7,5.2,11.9,14.2,10.9,23.5l-64.3,583.8
		c-0.8,7.3-4.8,13.9-10.9,18C751.7,846.4,746.9,847.9,741.9,847.9z"/>
</g>
<g>
	<path class="st0" d="M461.7,847.9c-13.8,0-25-11.2-25-25V671.1c0-5.7,1.9-11.2,5.5-15.6l344.5-432c8.6-10.8,24.3-12.6,35.1-4
		c10.8,8.6,12.6,24.3,4,35.1L486.7,679.8v143C486.7,836.7,475.5,847.9,461.7,847.9z"/>
</g>
</svg>
