<?xml version="1.0" encoding="utf-8"?>
<!-- Generator: Adobe Illustrator 18.0.0, SVG Export Plug-In . SVG Version: 6.00 Build 0)  -->
<!DOCTYPE svg PUBLIC "-//W3C//DTD SVG 1.1//EN" "http://www.w3.org/Graphics/SVG/1.1/DTD/svg11.dtd">
<svg version="1.1" id="图层_1" xmlns="http://www.w3.org/2000/svg" xmlns:xlink="http://www.w3.org/1999/xlink" x="0px" y="0px"
	 viewBox="0 0 1000 1000" style="enable-background:new 0 0 1000 1000;" xml:space="preserve">
<style type="text/css">
	.st0{fill:#040000;}
	.st1{fill:none;stroke:#040000;stroke-width:50;stroke-miterlimit:10;}
	.st2{enable-background:new    ;}
</style>
<g>
	<path class="st0" d="M134.4,540.9c-18.1,0-33.8-11-40-27.9c-6.2-16.9-1.3-35.4,12.5-47l340.9-288.5c15.9-13.5,39-13.5,55,0.1
		l335.7,287.9c13.6,11.7,18.4,30.2,12.2,47c-6.2,16.8-21.8,27.7-39.8,27.7l-73.7,0.1c0,0,0,0,0,0c-13.8,0-25-11.2-25-25
		c0-13.8,11.2-25,25-25l53.4-0.1L475.2,219.8L155,490.9l45.9-0.1c0,0,0,0,0,0c13.8,0,25,11.2,25,25c0,13.8-11.2,25-25,25
		L134.4,540.9z"/>
</g>
<g>
	<path class="st0" d="M602.3,915.1h-252c-13.8,0-25-11.2-25-25V516c0-13.8,11.2-25,25-25h252c13.8,0,25,11.2,25,25v374.1
		C627.3,903.9,616.1,915.1,602.3,915.1z M375.3,865.1h202V541h-202V865.1z"/>
</g>
<g>
	<path class="st0" d="M685.8,915H253.1c-41.5,0-75.3-33.8-75.3-75.3V516c0-13.8,11.2-25,25-25s25,11.2,25,25v323.7
		c0,13.9,11.3,25.3,25.3,25.3h432.6c13.9,0,25.3-11.3,25.3-25.3V516c0-13.8,11.2-25,25-25s25,11.2,25,25v323.7
		C761.1,881.3,727.3,915,685.8,915z"/>
</g>
<g>
	<path class="st0" d="M428.9,747.1c-13.8,0-25-11.2-25-25v-90.8c0-13.8,11.2-25,25-25s25,11.2,25,25v90.8
		C453.9,735.9,442.7,747.1,428.9,747.1z"/>
</g>
</svg>
