<?xml version="1.0" encoding="utf-8"?>
<!-- Generator: Adobe Illustrator 18.0.0, SVG Export Plug-In . SVG Version: 6.00 Build 0)  -->
<!DOCTYPE svg PUBLIC "-//W3C//DTD SVG 1.1//EN" "http://www.w3.org/Graphics/SVG/1.1/DTD/svg11.dtd">
<svg version="1.1" id="图层_1" xmlns="http://www.w3.org/2000/svg" xmlns:xlink="http://www.w3.org/1999/xlink" x="0px" y="0px"
	 viewBox="0 0 1000 1000" style="enable-background:new 0 0 1000 1000;" xml:space="preserve">
<style type="text/css">
	.st0{fill:#040000;}
	.st1{fill:none;stroke:#040000;stroke-width:50;stroke-miterlimit:10;}
	.st2{enable-background:new    ;}
</style>
<g>
	<path class="st0" d="M463.1,523.6H245c-20.2,0-36.7-16.5-36.7-36.7V268.8c0-20.2,16.5-36.7,36.7-36.7h218.1
		c20.2,0,36.7,16.5,36.7,36.7v218.1C499.8,507.1,483.3,523.6,463.1,523.6z M258.3,473.6h191.5V282.1H258.3V473.6z"/>
</g>
<g>
	<path class="st0" d="M788.6,523.6H570.5c-20.2,0-36.7-16.5-36.7-36.7V268.8c0-20.2,16.5-36.7,36.7-36.7h218.1
		c20.2,0,36.7,16.5,36.7,36.7v218.1C825.3,507.1,808.8,523.6,788.6,523.6z M583.8,473.6h191.5V282.1H583.8V473.6z"/>
</g>
<g>
	<path class="st0" d="M463.1,847H245c-20.2,0-36.7-16.5-36.7-36.7V592.3c0-20.2,16.5-36.7,36.7-36.7h218.1
		c20.2,0,36.7,16.5,36.7,36.7v218.1C499.8,830.6,483.3,847,463.1,847z M258.3,797h191.5V605.5H258.3V797z"/>
</g>
<g>
	<path class="st0" d="M788.6,847H570.5c-20.2,0-36.7-16.5-36.7-36.7V592.3c0-20.2,16.5-36.7,36.7-36.7h218.1
		c20.2,0,36.7,16.5,36.7,36.7v218.1C825.3,830.6,808.8,847,788.6,847z M583.8,797h191.5V605.5H583.8V797z"/>
</g>
</svg>
