<?xml version="1.0" encoding="utf-8"?>
<!-- Generator: Adobe Illustrator 18.0.0, SVG Export Plug-In . SVG Version: 6.00 Build 0)  -->
<!DOCTYPE svg PUBLIC "-//W3C//DTD SVG 1.1//EN" "http://www.w3.org/Graphics/SVG/1.1/DTD/svg11.dtd">
<svg version="1.1" id="图层_1" xmlns="http://www.w3.org/2000/svg" xmlns:xlink="http://www.w3.org/1999/xlink" x="0px" y="0px"
	 viewBox="0 0 1000 1000" style="enable-background:new 0 0 1000 1000;" xml:space="preserve">
<style type="text/css">
	.st0{fill:#040000;}
	.st1{fill:none;stroke:#040000;stroke-width:50;stroke-miterlimit:10;}
	.st2{enable-background:new    ;}
</style>
<g>
	<path class="st0" d="M421,863.2c-82.3,0-281.1-20.1-350-206.6c-2.7-7.4-1.8-15.7,2.5-22.3c4.3-6.6,11.5-10.8,19.4-11.3
		c0.3,0,7-0.4,18.4-0.4c36.2,0,107.9,3.9,180.8,29.9c42.4,15.1,79.2,35.7,109.4,61.2c36.7,31,63.8,69.4,80.6,114.2
		c2.7,7.2,1.9,15.3-2.1,21.8c-4,6.6-10.8,10.9-18.5,11.8C460.9,861.5,445.4,863.2,421,863.2z M133.2,673
		c68.5,125.3,220.5,140.1,287.1,140.2C354.8,697.1,204.7,676.2,133.2,673z"/>
</g>
<g>
	<path class="st0" d="M496.4,863.2C496.4,863.2,496.4,863.2,496.4,863.2c-24.4,0-39.9-1.7-40.5-1.8c-7.6-0.9-14.5-5.2-18.5-11.8
		s-4.8-14.6-2.1-21.8c16.8-44.8,43.9-83.2,80.6-114.2c30.2-25.5,67-46,109.4-61.2c73-26,144.6-29.9,180.8-29.9
		c11.4,0,18.1,0.4,18.4,0.4c7.9,0.5,15.1,4.7,19.4,11.3c4.3,6.6,5.2,14.9,2.5,22.3C777.5,843.1,578.7,863.2,496.4,863.2z M784.2,673
		c-71.5,3.1-221.6,24.1-287.1,140.2C563.7,813.1,715.7,798.4,784.2,673z"/>
</g>
<g>
	<path class="st0" d="M451.8,673.9c-0.8,0-1.7,0-2.5-0.1c-2.3-0.2-56.1-5.9-113.4-33.8c-78.5-38.1-125.7-99.1-136.6-176.5
		c-1.1-7.8,1.6-15.7,7.2-21.3c5.6-5.6,13.5-8.1,21.4-6.9c2.3,0.3,55.9,8.8,112.9,37.9c77.9,39.7,124.8,98.8,135.6,171
		c0.3,1.5,0.4,3.1,0.4,4.7c0,13.7-11.1,24.9-24.8,25C451.9,673.9,451.9,673.9,451.8,673.9z M258.3,494c16,42.6,48.9,76.2,98.2,100.4
		c22,10.8,43.6,17.8,61,22.3C387.8,543.3,306.7,508.6,258.3,494z"/>
</g>
<g>
	<path class="st0" d="M452.6,673.9c-6.8,0-13.3-2.8-18-7.7c-5.3-5.6-7.8-13.3-6.7-20.9c10.5-72.7,57.5-132.2,135.8-172.1
		c57-29,110.6-37.5,112.9-37.9c7.8-1.2,15.7,1.4,21.4,6.9c5.6,5.6,8.3,13.4,7.2,21.3C694.2,540.9,647,601.9,568.5,640
		c-57.3,27.8-111.1,33.5-113.4,33.8C454.3,673.8,453.4,673.9,452.6,673.9z M646.1,494c-17.4,5.2-39,13.1-60.9,24.3
		c-49.4,25.4-82.4,58.4-98.4,98.4c17.4-4.5,39.1-11.5,61.1-22.3C597.2,570.2,630.1,536.5,646.1,494z"/>
</g>
<g>
	<path class="st0" d="M451.8,477c-0.8,0-1.7,0-2.5-0.1c-2.3-0.2-56.1-5.9-113.4-33.8C257.4,405,210.2,344,199.3,266.6
		c-1.1-7.8,1.6-15.7,7.2-21.3c5.6-5.6,13.5-8.1,21.4-6.9c2.3,0.3,55.9,8.8,112.9,37.9c77.9,39.7,124.8,98.8,135.6,171
		c0.3,1.5,0.4,3.1,0.4,4.7c0,13.7-11.1,24.9-24.8,25C451.9,477,451.9,477,451.8,477z M258.3,297.1c16,42.6,48.9,76.2,98.2,100.4
		c22,10.8,43.6,17.8,61,22.3C387.8,346.4,306.7,311.7,258.3,297.1z"/>
</g>
<g>
	<path class="st0" d="M452.6,477c-6.8,0-13.3-2.8-18-7.7c-5.3-5.6-7.8-13.3-6.7-20.9c10.5-72.7,57.5-132.2,135.8-172.1
		c57-29,110.6-37.5,112.9-37.9c7.8-1.2,15.7,1.4,21.4,6.9c5.6,5.6,8.3,13.4,7.2,21.3C694.2,344,647,405,568.5,443.1
		c-57.3,27.8-111.1,33.5-113.4,33.8C454.3,477,453.4,477,452.6,477z M646.1,297.1c-17.4,5.2-39,13.1-60.9,24.3
		c-49.4,25.4-82.4,58.4-98.4,98.4c17.4-4.5,39.1-11.5,61.1-22.3C597.2,373.3,630.1,339.6,646.1,297.1z"/>
</g>
<g>
	<path class="st0" d="M456.5,426.7c-1.1,0-2.2-0.1-3.3-0.2c-6.9-0.9-13.1-4.7-17.1-10.4c-41.5-58.7-52.6-128-32.2-200.5
		c15.1-53.5,42.2-90,43.4-91.6c5-6.6,12.8-10.3,21.1-10c8.2,0.4,15.8,4.8,20.1,11.8c25.7,41.3,41.2,82.3,45.9,121.8
		c3.9,32.5,0.6,64.1-9.8,93.7c-17.8,50.7-50.7,78.4-52.1,79.6C467.9,424.7,462.3,426.7,456.5,426.7z M466.5,190.4
		c-5.3,11.4-10.7,25.1-14.9,40.3c-12.7,46.2-9.7,89.2,8.7,128.2c6.3-9.5,12.9-21.6,17.8-36.3C491.6,282,487.7,237.7,466.5,190.4z"/>
</g>
<g>
	<path class="st0" d="M451.8,955.4c-13.8,0-25-11.2-25-25V401.7c0-13.8,11.2-25,25-25s25,11.2,25,25v528.7
		C476.8,944.2,465.6,955.4,451.8,955.4z"/>
</g>
</svg>
