<?xml version="1.0" encoding="utf-8"?>
<!-- Generator: Adobe Illustrator 18.0.0, SVG Export Plug-In . SVG Version: 6.00 Build 0)  -->
<!DOCTYPE svg PUBLIC "-//W3C//DTD SVG 1.1//EN" "http://www.w3.org/Graphics/SVG/1.1/DTD/svg11.dtd">
<svg version="1.1" id="图层_1" xmlns="http://www.w3.org/2000/svg" xmlns:xlink="http://www.w3.org/1999/xlink" x="0px" y="0px"
	 viewBox="0 0 1000 1000" style="enable-background:new 0 0 1000 1000;" xml:space="preserve">
<style type="text/css">
	.st0{fill:#040000;}
	.st1{fill:none;stroke:#040000;stroke-width:50;stroke-miterlimit:10;}
	.st2{enable-background:new    ;}
</style>
<g>
	<path class="st0" d="M518.7,638.6c-3.3,0-6.7-0.7-9.8-2L109.5,466.2c-9.1-3.9-15-12.7-15.2-22.5c-0.2-9.9,5.5-18.9,14.4-23.1
		l395.9-185.8c6.7-3.1,14.4-3.2,21.1-0.1l389.6,179.8c8.9,4.1,14.5,13,14.5,22.7c0,9.8-5.7,18.6-14.6,22.7L529.1,636.4
		C525.8,637.9,522.2,638.6,518.7,638.6z M180.4,442.1l337.9,144.2l326.6-149.2L515.3,285L180.4,442.1z"/>
</g>
<g>
	<path class="st0" d="M178,669.4c-13.8,0-25-11.2-25-25V470.6c0-13.8,11.2-25,25-25s25,11.2,25,25v173.8
		C203,658.2,191.8,669.4,178,669.4z"/>
</g>
<g>
	<path class="st0" d="M178,771c-13.8,0-25-11.2-25-25v-33.4c0-13.8,11.2-25,25-25s25,11.2,25,25V746C203,759.8,191.8,771,178,771z"
		/>
</g>
<g>
	<path class="st0" d="M517,895.4c-4.4,0-8.9,0-13.5-0.1c-226.9-4.7-259.9-127.4-261.2-132.6c-0.5-2-0.7-4-0.7-6V517.4
		c0-13.8,11.2-25,25-25s25,11.2,25,25v235.3c2.5,6.4,10.9,24.2,34.1,42.7c27.2,21.7,80.4,48,178.9,50
		c106.9,2.2,167.7-24.8,199.8-47.8c26.9-19.3,38.5-38.5,42.3-46.2v-234c0-13.8,11.2-25,25-25s25,11.2,25,25v239.3
		c0,2.8-0.5,5.7-1.4,8.3C793.3,770.4,746.4,895.4,517,895.4z"/>
</g>
<g>
	<path class="st0" d="M517.9,768.4c-181.6,0-262.8-85.9-266.4-89.8l36.8-33.8l-0.1-0.1c0.2,0.2,20.6,21.5,63.5,41
		c39.7,18,107.5,38.1,204.7,31.4c13.8-1,25.7,9.4,26.7,23.2c1,13.8-9.4,25.7-23.2,26.7C545.3,767.9,531.3,768.4,517.9,768.4z"/>
</g>
<g>
	<path class="st0" d="M644.3,756.2c-12.2,0-22.9-8.9-24.7-21.4c-2-13.7,7.4-26.4,21.1-28.4c44.4-6.6,95.3-44.4,111.1-58.4
		c10.3-9.2,26.1-8.2,35.3,2.1c9.2,10.3,8.2,26.1-2.1,35.3c-2.8,2.5-68.9,60.4-137,70.5C646.8,756.1,645.6,756.2,644.3,756.2z"/>
</g>
</svg>
