<?xml version="1.0" encoding="utf-8"?>
<!-- Generator: Adobe Illustrator 18.0.0, SVG Export Plug-In . SVG Version: 6.00 Build 0)  -->
<!DOCTYPE svg PUBLIC "-//W3C//DTD SVG 1.1//EN" "http://www.w3.org/Graphics/SVG/1.1/DTD/svg11.dtd">
<svg version="1.1" id="图层_1" xmlns="http://www.w3.org/2000/svg" xmlns:xlink="http://www.w3.org/1999/xlink" x="0px" y="0px"
	 viewBox="0 0 1000 1000" style="enable-background:new 0 0 1000 1000;" xml:space="preserve">
<style type="text/css">
	.st0{fill:#020000;}
	.st1{fill-rule:evenodd;clip-rule:evenodd;}
	.st2{fill:#020202;}
	.st3{fill:#5A9BFD;stroke:#5A9BFD;stroke-width:40;stroke-linecap:round;stroke-miterlimit:10;}
	.st4{fill:none;stroke:#FFFFFF;stroke-width:40;stroke-linecap:round;stroke-miterlimit:10;}
	.st5{fill:none;stroke:#020000;stroke-width:50;stroke-linecap:round;stroke-miterlimit:10;}
	.st6{fill:none;}
	.st7{fill:none;stroke:#000000;stroke-width:50;stroke-linecap:round;stroke-linejoin:round;stroke-miterlimit:10;}
</style>
<g>
	<path d="M518.6,940.6c-37.4,0-74.1-12.8-103.2-36c-27.1-21.6-45.9-50.7-51.4-79.9c-2.6-13.6,6.3-26.7,19.9-29.2
		c13.6-2.6,26.7,6.3,29.2,19.9c6,31.5,46,75.2,105.5,75.2s99.5-43.7,105.5-75.2c2.6-13.6,15.7-22.5,29.2-19.9
		c13.6,2.6,22.5,15.7,19.9,29.2c-5.6,29.2-24.3,58.3-51.4,79.9C592.7,927.9,556,940.6,518.6,940.6z"/>
</g>
<g>
	<path d="M779.3,761H220.7c-16.2,0-35.8-8-51.3-21c-19.1-16-29.6-37.3-29.6-59.9c0-50.1,47.1-80.9,80.9-80.9c1.2,0,4.4-3.5,7.3-11
		c3.4-8.9,4.7-18.3,5-21.1V400.9c0-56.2,18.7-110.1,54.1-155.9c29.6-38.3,69.4-68.1,113.5-85.3v-0.9c0-54.8,44.6-99.5,99.5-99.5
		c54.8,0,99.4,44.6,99.5,99.4c50.5,16.6,92.1,46.5,121,87.1c30.4,42.6,46.5,96.3,46.5,155.1v166.5c1.5,16.2,8.8,31.9,12.2,31.9
		c18.6,0,37.6,6.7,52.1,18.3c18.6,14.9,28.8,37.1,28.8,62.6C860.1,735.3,811.9,761,779.3,761z M500,109.4
		c-27.3,0-49.5,22.2-49.5,49.5V196l-17.7,5.4C346,227.9,283,311.8,283,400.9v168.5l-0.1,1c-0.1,1.8-1.5,17.9-7.8,34.7
		c-14.3,38.5-40.2,44.2-54.4,44.2c-9.4,0-30.9,11.7-30.9,30.9c0,19.3,24.5,30.9,30.9,30.9h558.5c4.1,0,12.7-2,19.9-7.6
		c7.4-5.7,11-13.3,11-23.3c0-10.4-3.3-18.1-10.1-23.6c-6.7-5.4-15.1-7.3-20.8-7.3c-14.2,0-40.1-5.7-54.4-44.2
		c-6.2-16.8-7.6-32.9-7.7-34.7l-0.1-0.9V400.9c0-101-55.6-175.5-148.7-199.2l-18.8-4.8v-38C549.5,131.6,527.3,109.4,500,109.4z"/>
</g>
</svg>
