<?xml version="1.0" encoding="utf-8"?>
<!-- Generator: Adobe Illustrator 18.0.0, SVG Export Plug-In . SVG Version: 6.00 Build 0)  -->
<!DOCTYPE svg PUBLIC "-//W3C//DTD SVG 1.1//EN" "http://www.w3.org/Graphics/SVG/1.1/DTD/svg11.dtd">
<svg version="1.1" id="图层_1" xmlns="http://www.w3.org/2000/svg" xmlns:xlink="http://www.w3.org/1999/xlink" x="0px" y="0px"
	 viewBox="0 0 1000 1000" style="enable-background:new 0 0 1000 1000;" xml:space="preserve">
<style type="text/css">
	.st0{fill:#040000;}
	.st1{fill:none;stroke:#040000;stroke-width:50;stroke-miterlimit:10;}
	.st2{enable-background:new    ;}
</style>
<g>
	<g>
		<path class="st0" d="M701.7,383.5c-13.8,0-25-11.2-25-25c0-111.6-90.8-202.3-202.3-202.3S272,246.9,272,358.5
			c0,13.8-11.2,25-25,25c-13.8,0-25-11.2-25-25c0-67.2,26.3-130.5,74.1-178.3c47.8-47.8,111.1-74.1,178.2-74.1
			c67.2,0,130.5,26.3,178.3,74.1c47.8,47.8,74.1,111.1,74.1,178.2C726.7,372.3,715.5,383.5,701.7,383.5z"/>
	</g>
	<g>
		<path class="st0" d="M776.3,779.3H182c-20.7,0-39.2-10.7-49.5-28.6c-10.3-17.9-10.2-39.3,0.3-57.2l50.9-86.8
			c25.2-42.9,38.5-91.8,38.5-141.5V363.4c0-13.8,11.2-25,25-25s25,11.2,25,25v101.8c0,58.5-15.7,116.2-45.3,166.8l-50.9,86.8
			c-1.8,3.1-0.8,5.8,0,7.1c0.9,1.6,2.7,3.5,6.1,3.5h594.3c2.5,0,3.8-1.4,4.5-2.6c1-1.7,1-3.4,0-5.1l-48.2-82.9
			c-32.3-55.7-50.4-119-52.3-183l-2.7-72.2c-0.6-2.1-0.9-4.4-0.9-6.7v-18.1c0-13.6,10.9-24.7,24.5-25c13.7-0.2,24.9,10.4,25.5,24.1
			l3.6,96.2c0,0.1,0,0.1,0,0.2c1.6,55.8,17.4,110.9,45.6,159.5l48.2,82.9c10,17.2,10.1,37.9,0.2,55.2
			C814.2,769,796.3,779.3,776.3,779.3z"/>
	</g>
</g>
<g>
	<path class="st0" d="M476.7,916.3c-76.7,0-139.1-62.4-139.1-139.1c0-13.8,11.2-25,25-25s25,11.2,25,25c0,49.1,40,89.1,89.1,89.1
		s89.1-40,89.1-89.1c0-13.8,11.2-25,25-25s25,11.2,25,25C615.8,853.9,553.4,916.3,476.7,916.3z"/>
</g>
</svg>
