<?xml version="1.0" encoding="utf-8"?>
<!-- Generator: Adobe Illustrator 18.0.0, SVG Export Plug-In . SVG Version: 6.00 Build 0)  -->
<!DOCTYPE svg PUBLIC "-//W3C//DTD SVG 1.1//EN" "http://www.w3.org/Graphics/SVG/1.1/DTD/svg11.dtd">
<svg version="1.1" id="图层_1" xmlns="http://www.w3.org/2000/svg" xmlns:xlink="http://www.w3.org/1999/xlink" x="0px" y="0px"
	 viewBox="0 0 1000 1000" style="enable-background:new 0 0 1000 1000;" xml:space="preserve">
<style type="text/css">
	.st0{fill:#040000;}
	.st1{fill:none;stroke:#040000;stroke-width:50;stroke-miterlimit:10;}
	.st2{enable-background:new    ;}
</style>
<g>
	<path class="st0" d="M481.1,935.8c-56.1,0-110.6-11-161.9-32.7c-49.5-21-94-51-132.2-89.2c-38.2-38.2-68.2-82.7-89.2-132.2
		C76,630.5,65,576,65,519.8s11-110.6,32.7-161.9c21-49.5,51-94,89.2-132.2c38.2-38.2,82.7-68.2,132.2-89.2
		c51.3-21.7,105.8-32.7,161.9-32.7c13.8,0,25,11.2,25,25s-11.2,25-25,25c-201.8,0-366,164.2-366,366s164.2,366,366,366
		s366-164.2,366-366c0-98-38.2-190.1-107.7-259.2c-9.8-9.7-9.8-25.6-0.1-35.4c9.7-9.8,25.6-9.8,35.4-0.1
		c38.4,38.2,68.5,82.8,89.6,132.4c21.8,51.4,32.8,106,32.8,162.3c0,56.1-11,110.6-32.7,161.9c-21,49.5-51,94-89.2,132.2
		c-38.2,38.2-82.7,68.2-132.2,89.2C591.7,924.8,537.2,935.8,481.1,935.8z"/>
</g>
<g>
	<path class="st0" d="M481.6,774c-66.1,0-128.2-25.7-175-72.5s-72.5-108.9-72.5-175s25.7-128.2,72.5-175s108.9-72.5,175-72.5
		c13.8,0,25,11.2,25,25s-11.2,25-25,25c-108.9,0-197.5,88.6-197.5,197.5S372.8,724,481.6,724s197.5-88.6,197.5-197.5
		c0-53-20.6-102.6-58.1-139.9c-9.8-9.7-9.8-25.6-0.1-35.4c9.7-9.8,25.6-9.8,35.4-0.1c46.9,46.7,72.8,109,72.8,175.3
		c0,66.1-25.7,128.2-72.5,175S547.7,774,481.6,774z"/>
</g>
<g>
	<path class="st0" d="M481.6,580.7c-33.5,0-60.8-27.3-60.8-60.8s27.3-60.8,60.8-60.8s60.8,27.3,60.8,60.8S515.2,580.7,481.6,580.7z
		 M481.6,509c-6,0-10.8,4.9-10.8,10.8s4.9,10.8,10.8,10.8s10.8-4.9,10.8-10.8S487.6,509,481.6,509z"/>
</g>
<g>
	<path class="st0" d="M481.1,509c-13.8,0-25-11.2-25-25V128.8c0-13.8,11.2-25,25-25s25,11.2,25,25V484
		C506.1,497.8,494.9,509,481.1,509z"/>
</g>
</svg>
