<?xml version="1.0" encoding="utf-8"?>
<!-- Generator: Adobe Illustrator 18.0.0, SVG Export Plug-In . SVG Version: 6.00 Build 0)  -->
<!DOCTYPE svg PUBLIC "-//W3C//DTD SVG 1.1//EN" "http://www.w3.org/Graphics/SVG/1.1/DTD/svg11.dtd">
<svg version="1.1" id="图层_1" xmlns="http://www.w3.org/2000/svg" xmlns:xlink="http://www.w3.org/1999/xlink" x="0px" y="0px"
	 viewBox="0 0 1000 1000" style="enable-background:new 0 0 1000 1000;" xml:space="preserve">
<style type="text/css">
	.st0{fill:#040000;}
	.st1{fill:none;stroke:#040000;stroke-width:50;stroke-miterlimit:10;}
	.st2{enable-background:new    ;}
</style>
<g>
	<path class="st0" d="M162.3,745.7c-13.8,0-25-11.2-25-25V463.5c0-13.8,11.2-25,25-25s25,11.2,25,25v257.2
		C187.3,734.5,176.1,745.7,162.3,745.7z"/>
</g>
<g>
	<path class="st0" d="M517.8,745.7c-13.8,0-25-11.2-25-25V463.5c0-13.8,11.2-25,25-25s25,11.2,25,25v257.2
		C542.8,734.5,531.6,745.7,517.8,745.7z"/>
</g>
<g>
	<path class="st0" d="M340.1,542.6c-50.3,0-98-7.3-134.2-20.5c-56.6-20.7-68.5-49.1-68.5-69.3s11.9-48.7,68.5-69.3
		c36.2-13.2,83.9-20.5,134.2-20.5c50.3,0,98,7.3,134.2,20.5c56.6,20.7,68.5,49.1,68.5,69.3s-11.9,48.7-68.5,69.3
		C438.1,535.3,390.4,542.6,340.1,542.6z M187.4,452.7c0.7,2.5,9.2,13.4,39.4,23.7c30.5,10.4,70.8,16.2,113.4,16.2
		s82.9-5.7,113.4-16.2c30.1-10.3,38.7-21.2,39.4-23.7c-0.7-2.5-9.2-13.4-39.4-23.7c-30.5-10.4-70.8-16.2-113.4-16.2
		c-42.6,0-82.9,5.7-113.4,16.2C196.6,439.3,188.1,450.3,187.4,452.7z"/>
</g>
<g>
	<path class="st0" d="M340.1,636.5c-50.3,0-98-7.3-134.2-20.5c-56.6-20.6-68.5-49.1-68.5-69.3c0-13.8,11.2-25,25-25
		c13.8,0,25,11.2,25,24.9c0.5,2.3,8.9,13.4,39.3,23.8c30.5,10.4,70.8,16.2,113.4,16.2s82.9-5.7,113.4-16.2
		c30.4-10.4,38.8-21.5,39.3-23.8c0-13.8,11.2-24.9,25-24.9c13.8,0,25,11.2,25,25c0,20.2-11.9,48.7-68.5,69.3
		C438.1,629.2,390.4,636.5,340.1,636.5z"/>
</g>
<g>
	<path class="st0" d="M340.1,723c-50.3,0-98-7.3-134.2-20.5c-56.6-20.6-68.5-49.1-68.5-69.3c0-13.8,11.2-25,25-25
		c13.8,0,25,11.2,25,24.9c0.5,2.3,8.9,13.4,39.3,23.8c30.5,10.4,70.8,16.2,113.4,16.2s82.9-5.7,113.4-16.2
		c30.4-10.4,38.8-21.5,39.3-23.8c0-13.8,11.2-24.9,25-24.9c13.8,0,25,11.2,25,25c0,20.2-11.9,48.7-68.5,69.3
		C438.1,715.7,390.4,723,340.1,723z"/>
</g>
<g>
	<path class="st0" d="M340.1,818.7c-50.3,0-98-7.3-134.2-20.5c-56.6-20.6-68.5-49.1-68.5-69.3c0-13.8,11.2-25,25-25
		c13.8,0,25,11.2,25,24.9c0.5,2.3,8.9,13.4,39.3,23.8c30.5,10.4,70.8,16.2,113.4,16.2s82.9-5.7,113.4-16.2
		c30.4-10.4,38.8-21.5,39.3-23.8c0-13.8,11.2-24.9,25-24.9c13.8,0,25,11.2,25,25c0,20.2-11.9,48.7-68.5,69.3
		C438.1,811.4,390.4,818.7,340.1,818.7z"/>
</g>
<g>
	<path class="st0" d="M413,408.8c-13.8,0-25-11.2-25-25V256.3c0-13.8,11.2-25,25-25s25,11.2,25,25v127.5
		C438,397.6,426.9,408.8,413,408.8z"/>
</g>
<g>
	<path class="st0" d="M768.6,635.7c-13.8,0-25-11.2-25-25V256.3c0-13.8,11.2-25,25-25s25,11.2,25,25v354.5
		C793.6,624.6,782.4,635.7,768.6,635.7z"/>
</g>
<g>
	<path class="st0" d="M590.8,342.9c-50.3,0-98-7.3-134.2-20.5C399.9,301.7,388,273.3,388,253s11.9-48.7,68.5-69.3
		c36.2-13.2,83.9-20.5,134.2-20.5c50.3,0,98,7.3,134.2,20.5c56.6,20.7,68.5,49.1,68.5,69.3s-11.9,48.7-68.5,69.3
		C688.8,335.6,641.1,342.9,590.8,342.9z M438.1,253c0.7,2.5,9.2,13.4,39.4,23.7c30.5,10.4,70.8,16.2,113.4,16.2s82.9-5.7,113.4-16.2
		c30.1-10.3,38.7-21.2,39.4-23.7c-0.7-2.5-9.2-13.4-39.4-23.7c-30.5-10.4-70.8-16.2-113.4-16.2c-42.6,0-82.9,5.7-113.4,16.2
		C447.3,239.6,438.7,250.6,438.1,253z"/>
</g>
<g>
	<path class="st0" d="M590.9,526.6c-19.5,0-38.3-1-55.8-3.1c-13.7-1.6-23.5-14-21.9-27.7c1.6-13.7,14-23.5,27.7-21.9
		c15.7,1.8,32.5,2.8,50,2.8c42.6,0,82.9-5.7,113.4-16.2c30.4-10.4,38.8-21.5,39.3-23.8c0-13.8,11.2-24.9,25-24.9
		c13.8,0,25,11.2,25,25c0,20.2-11.9,48.7-68.5,69.3C688.9,519.3,641.2,526.6,590.9,526.6z"/>
</g>
<g>
	<path class="st0" d="M590.9,433.3c-50.3,0-98-7.3-134.2-20.5c-56.6-20.6-68.5-49.1-68.5-69.3c0-13.8,11.2-25,25-25
		c13.8,0,25,11.2,25,24.9c0.5,2.3,8.9,13.4,39.3,23.8c30.5,10.4,70.8,16.2,113.4,16.2s82.9-5.7,113.4-16.2
		c30.4-10.4,38.8-21.5,39.3-23.8c0-13.8,11.2-24.9,25-24.9c13.8,0,25,11.2,25,25c0,20.2-11.9,48.7-68.5,69.3
		C688.9,426,641.2,433.3,590.9,433.3z"/>
</g>
<g>
	<path class="st0" d="M590.9,613.1c-19.5,0-38.3-1-55.8-3.1c-13.7-1.6-23.5-14-21.9-27.7c1.6-13.7,14-23.5,27.7-21.9
		c15.7,1.8,32.5,2.8,50,2.8c42.6,0,82.9-5.7,113.4-16.2c30.4-10.4,38.8-21.5,39.3-23.8c0-13.8,11.2-24.9,25-24.9
		c13.8,0,25,11.2,25,25c0,20.2-11.9,48.7-68.5,69.3C688.9,605.8,641.2,613.1,590.9,613.1z"/>
</g>
<g>
	<path class="st0" d="M590.9,705.5c-19.5,0-38.3-1-55.8-3.1c-13.7-1.6-23.5-14-21.9-27.7c1.6-13.7,14-23.5,27.7-21.9
		c15.7,1.8,32.5,2.8,50,2.8c42.6,0,82.9-5.7,113.4-16.2c30.4-10.4,38.8-21.5,39.3-23.8c0-13.8,11.2-24.9,25-24.9
		c13.8,0,25,11.2,25,25c0,20.2-11.9,48.7-68.5,69.3C688.9,698.2,641.2,705.5,590.9,705.5z"/>
</g>
</svg>
