<?xml version="1.0" encoding="utf-8"?>
<!-- Generator: Adobe Illustrator 18.0.0, SVG Export Plug-In . SVG Version: 6.00 Build 0)  -->
<!DOCTYPE svg PUBLIC "-//W3C//DTD SVG 1.1//EN" "http://www.w3.org/Graphics/SVG/1.1/DTD/svg11.dtd">
<svg version="1.1" id="图层_1" xmlns="http://www.w3.org/2000/svg" xmlns:xlink="http://www.w3.org/1999/xlink" x="0px" y="0px"
	 viewBox="0 0 1000 1000" style="enable-background:new 0 0 1000 1000;" xml:space="preserve">
<style type="text/css">
	.st0{fill:#020000;}
	.st1{fill-rule:evenodd;clip-rule:evenodd;}
	.st2{fill:#020202;}
	.st3{fill:#5A9BFD;stroke:#5A9BFD;stroke-width:40;stroke-linecap:round;stroke-miterlimit:10;}
	.st4{fill:none;stroke:#FFFFFF;stroke-width:40;stroke-linecap:round;stroke-miterlimit:10;}
	.st5{fill:none;stroke:#020000;stroke-width:50;stroke-linecap:round;stroke-miterlimit:10;}
	.st6{fill:none;}
	.st7{fill:none;stroke:#000000;stroke-width:50;stroke-linecap:round;stroke-linejoin:round;stroke-miterlimit:10;}
</style>
<g>
	<path d="M357.3,582.1c-61.1,0-118.6-23.8-161.8-67s-67-100.7-67-161.8s23.8-118.6,67-161.8s100.7-67,161.8-67s118.6,23.8,161.8,67
		c43.2,43.2,67,100.7,67,161.8s-23.8,118.6-67,161.8C475.9,558.3,418.4,582.1,357.3,582.1z M357.3,174.4
		c-98.6,0-178.9,80.2-178.9,178.9s80.2,178.9,178.9,178.9c98.6,0,178.9-80.2,178.9-178.9S455.9,174.4,357.3,174.4z"/>
</g>
<g>
	<path d="M803.7,800.9c-6.1,0-12.3-2.2-17.1-6.8L487,512.8c-10.1-9.5-10.6-25.3-1.1-35.3c9.5-10.1,25.3-10.6,35.3-1.1l299.6,281.3
		c10.1,9.5,10.6,25.3,1.1,35.3C817,798.3,810.4,800.9,803.7,800.9z"/>
</g>
<g>
	<path class="st6" d="M740.5,737.4c0-0.7,0-1.3,0-2"/>
</g>
<g>
	<path class="st6" d="M756.5,723.4c-0.7,0-1.3,0-2,0"/>
</g>
</svg>
