<?xml version="1.0" encoding="utf-8"?>
<!-- Generator: Adobe Illustrator 18.0.0, SVG Export Plug-In . SVG Version: 6.00 Build 0)  -->
<!DOCTYPE svg PUBLIC "-//W3C//DTD SVG 1.1//EN" "http://www.w3.org/Graphics/SVG/1.1/DTD/svg11.dtd">
<svg version="1.1" id="图层_1" xmlns="http://www.w3.org/2000/svg" xmlns:xlink="http://www.w3.org/1999/xlink" x="0px" y="0px"
	 viewBox="0 0 1000 1000" style="enable-background:new 0 0 1000 1000;" xml:space="preserve">
<style type="text/css">
	.st0{fill:#040000;}
	.st1{fill:none;stroke:#040000;stroke-width:50;stroke-miterlimit:10;}
	.st2{enable-background:new    ;}
</style>
<g>
	<path class="st0" d="M480.6,523.7c-96.8,0-175.5-78.7-175.5-175.5s78.7-175.5,175.5-175.5s175.5,78.7,175.5,175.5
		S577.4,523.7,480.6,523.7z M480.6,222.7c-69.2,0-125.5,56.3-125.5,125.5s56.3,125.5,125.5,125.5s125.5-56.3,125.5-125.5
		S549.8,222.7,480.6,222.7z"/>
</g>
<g>
	<path class="st0" d="M181.9,874.9c-12.5,0-23.3-9.4-24.8-22.1c-1.6-13.6-2.4-27.3-2.4-40.6c0-45.3,8.9-89.3,26.4-130.7
		c16.9-40,41.1-75.9,72-106.8c30.8-30.8,66.8-55.1,106.8-72c41.4-17.5,85.4-26.4,130.8-26.4c45.3,0,89.3,8.9,130.7,26.4
		c40,16.9,75.9,41.1,106.8,72c30.8,30.8,55.1,66.8,72,106.8c17.5,41.4,26.4,85.4,26.4,130.8c0,10.8-0.5,22-1.7,34.1
		c-1.3,13.7-13.5,23.9-27.2,22.6c-13.7-1.3-23.9-13.5-22.6-27.2c1-10.6,1.5-20.2,1.5-29.5c0-157.7-128.3-285.9-285.9-285.9
		S204.6,654.5,204.6,812.2c0,11.4,0.7,23.1,2.1,34.8c1.6,13.7-8.2,26.1-21.9,27.8C183.8,874.8,182.8,874.9,181.9,874.9z"/>
</g>
<g>
	<path class="st1" d="M308.6,765"/>
</g>
</svg>
