<?xml version="1.0" encoding="utf-8"?>
<!-- Generator: Adobe Illustrator 18.0.0, SVG Export Plug-In . SVG Version: 6.00 Build 0)  -->
<!DOCTYPE svg PUBLIC "-//W3C//DTD SVG 1.1//EN" "http://www.w3.org/Graphics/SVG/1.1/DTD/svg11.dtd">
<svg version="1.1" id="图层_1" xmlns="http://www.w3.org/2000/svg" xmlns:xlink="http://www.w3.org/1999/xlink" x="0px" y="0px"
	 viewBox="0 0 1000 1000" style="enable-background:new 0 0 1000 1000;" xml:space="preserve">
<style type="text/css">
	.st0{fill:#020000;}
	.st1{fill-rule:evenodd;clip-rule:evenodd;}
	.st2{fill:#020202;}
	.st3{fill:#5A9BFD;stroke:#5A9BFD;stroke-width:40;stroke-linecap:round;stroke-miterlimit:10;}
	.st4{fill:none;stroke:#FFFFFF;stroke-width:40;stroke-linecap:round;stroke-miterlimit:10;}
	.st5{fill:none;stroke:#020000;stroke-width:50;stroke-linecap:round;stroke-miterlimit:10;}
	.st6{fill:none;}
	.st7{fill:none;stroke:#000000;stroke-width:50;stroke-linecap:round;stroke-linejoin:round;stroke-miterlimit:10;}
</style>
<g>
	<path d="M816.6,286.1H193.5c-13.8,0-25-11.2-25-25s11.2-25,25-25h623.1c13.8,0,25,11.2,25,25S830.5,286.1,816.6,286.1z"/>
</g>
<g>
	<path d="M816.6,528.1H193.5c-13.8,0-25-11.2-25-25s11.2-25,25-25h623.1c13.8,0,25,11.2,25,25S830.5,528.1,816.6,528.1z"/>
</g>
<g>
	<path d="M816.6,753.5H193.5c-13.8,0-25-11.2-25-25s11.2-25,25-25h623.1c13.8,0,25,11.2,25,25S830.5,753.5,816.6,753.5z"/>
</g>
</svg>
