<?xml version="1.0" encoding="utf-8"?>
<!-- Generator: Adobe Illustrator 18.0.0, SVG Export Plug-In . SVG Version: 6.00 Build 0)  -->
<!DOCTYPE svg PUBLIC "-//W3C//DTD SVG 1.1//EN" "http://www.w3.org/Graphics/SVG/1.1/DTD/svg11.dtd">
<svg version="1.1" id="图层_1" xmlns="http://www.w3.org/2000/svg" xmlns:xlink="http://www.w3.org/1999/xlink" x="0px" y="0px"
	 viewBox="0 0 1000 1000" style="enable-background:new 0 0 1000 1000;" xml:space="preserve">
<style type="text/css">
	.st0{fill:#040000;}
	.st1{fill:none;stroke:#040000;stroke-width:50;stroke-miterlimit:10;}
	.st2{enable-background:new    ;}
</style>
<g>
	<path class="st0" d="M515.7,764.9h-65.1c-13.8,0-25-11.2-25-25s11.2-25,25-25h65.1c13.8,0,25,11.2,25,25S529.5,764.9,515.7,764.9z"
		/>
</g>
<g>
	<path class="st0" d="M815.6,764.9h-20c-13.8,0-25-11.2-25-25s11.2-25,25-25h20c4.3,0,8-3.7,8-8V373c0-4.3-3.7-8-8-8h-651
		c-4.3,0-8,3.7-8,8v333.9c0,4.3,3.7,8,8,8h10.1c13.8,0,25,11.2,25,25s-11.2,25-25,25h-10.1c-32,0-58-26-58-58V373c0-32,26-58,58-58
		h651c32,0,58,26,58,58v333.9C873.6,738.9,847.6,764.9,815.6,764.9z"/>
</g>
<g>
	<path class="st0" d="M769.9,557.5H641.1c-20.2,0-36.7-16.5-36.7-36.7v-88.2c0-20.2,16.5-36.7,36.7-36.7h128.8
		c20.2,0,36.7,16.5,36.7,36.7v88.2C806.6,541,790.1,557.5,769.9,557.5z M654.4,507.5h102.2v-61.6H654.4V507.5z"/>
</g>
<g>
	<path class="st0" d="M552.1,557.5H423.3c-20.2,0-36.7-16.5-36.7-36.7v-88.2c0-20.2,16.5-36.7,36.7-36.7h128.8
		c20.2,0,36.7,16.5,36.7,36.7v88.2C588.8,541,572.4,557.5,552.1,557.5z M436.6,507.5h102.2v-61.6H436.6V507.5z"/>
</g>
<g>
	<path class="st0" d="M334.6,557.5H205.7c-20.2,0-36.7-16.5-36.7-36.7v-88.2c0-20.2,16.5-36.7,36.7-36.7h128.8
		c20.2,0,36.7,16.5,36.7,36.7v88.2C371.3,541,354.8,557.5,334.6,557.5z M219,507.5h102.2v-61.6H219V507.5z"/>
</g>
<g>
	<path class="st0" d="M312.6,840.5c-54.8,0-99.4-44.6-99.4-99.4s44.6-99.4,99.4-99.4s99.4,44.6,99.4,99.4S367.4,840.5,312.6,840.5z
		 M312.6,691.6c-27.2,0-49.4,22.2-49.4,49.4s22.2,49.4,49.4,49.4s49.4-22.2,49.4-49.4S339.8,691.6,312.6,691.6z"/>
</g>
<g>
	<path class="st0" d="M657,840.5c-54.8,0-99.4-44.6-99.4-99.4s44.6-99.4,99.4-99.4s99.4,44.6,99.4,99.4S711.8,840.5,657,840.5z
		 M657,691.6c-27.2,0-49.4,22.2-49.4,49.4s22.2,49.4,49.4,49.4s49.4-22.2,49.4-49.4S684.3,691.6,657,691.6z"/>
</g>
</svg>
