<?xml version="1.0" encoding="utf-8"?>
<!-- Generator: Adobe Illustrator 18.0.0, SVG Export Plug-In . SVG Version: 6.00 Build 0)  -->
<!DOCTYPE svg PUBLIC "-//W3C//DTD SVG 1.1//EN" "http://www.w3.org/Graphics/SVG/1.1/DTD/svg11.dtd">
<svg version="1.1" id="图层_1" xmlns="http://www.w3.org/2000/svg" xmlns:xlink="http://www.w3.org/1999/xlink" x="0px" y="0px"
	 viewBox="0 0 1000 1000" style="enable-background:new 0 0 1000 1000;" xml:space="preserve">
<style type="text/css">
	.st0{fill:none;stroke:#040000;stroke-width:50;stroke-linecap:round;stroke-linejoin:round;stroke-miterlimit:10;}
	.st1{fill:none;stroke:#040000;stroke-width:50;stroke-miterlimit:10;}
	.st2{fill:none;stroke:#040000;stroke-width:50;stroke-linecap:round;stroke-miterlimit:10;}
	.st3{fill:#040000;}
	.st4{fill:none;stroke:#040000;stroke-width:50;stroke-linejoin:round;stroke-miterlimit:10;}
</style>
<path class="st1" d="M811.2,545.6H184.8c-4.5,0-8.2-3.7-8.2-8.2V390.6c0-4.5,3.7-8.2,8.2-8.2h626.5c4.5,0,8.2,3.7,8.2,8.2v146.8
	C819.3,541.9,815.7,545.6,811.2,545.6z"/>
<path class="st1" d="M775.3,865.8H218.2c-4,0-7.3-3.2-7.3-7.3V546.7h571.7v311.7C782.6,862.5,779.3,865.8,775.3,865.8z"/>
<path class="st1" d="M277.7,382.4c0,0-61.9-73.6-10.4-103.7c51.6-30.1,172.9,17.2,229.4,103.7v483.4"/>
<path class="st1" d="M724.3,382.4c0,0,50.4-84,0-109.2c-55.2-27.6-146.6,15.3-227.5,109.2"/>
</svg>
