<?xml version="1.0" encoding="utf-8"?>
<!-- Generator: Adobe Illustrator 18.0.0, SVG Export Plug-In . SVG Version: 6.00 Build 0)  -->
<!DOCTYPE svg PUBLIC "-//W3C//DTD SVG 1.1//EN" "http://www.w3.org/Graphics/SVG/1.1/DTD/svg11.dtd">
<svg version="1.1" id="图层_1" xmlns="http://www.w3.org/2000/svg" xmlns:xlink="http://www.w3.org/1999/xlink" x="0px" y="0px"
	 viewBox="0 0 1000 1000" style="enable-background:new 0 0 1000 1000;" xml:space="preserve">
<style type="text/css">
	.st0{fill:none;stroke:#040000;stroke-width:50;stroke-linecap:round;stroke-linejoin:round;stroke-miterlimit:10;}
	.st1{fill:none;stroke:#040000;stroke-width:50;stroke-miterlimit:10;}
	.st2{fill:none;stroke:#040000;stroke-width:50;stroke-linecap:round;stroke-miterlimit:10;}
	.st3{fill:#040000;}
	.st4{fill:none;stroke:#040000;stroke-width:50;stroke-linejoin:round;stroke-miterlimit:10;}
</style>
<line class="st2" x1="515.7" y1="739.9" x2="450.6" y2="739.9"/>
<path class="st2" d="M174.7,739.9h-10.1c-18.2,0-33-14.8-33-33V373c0-18.2,14.8-33,33-33h651c18.2,0,33,14.8,33,33v333.9
	c0,18.2-14.8,33-33,33h-20"/>
<path class="st1" d="M769.9,532.5H641.1c-6.4,0-11.7-5.3-11.7-11.7v-88.2c0-6.4,5.3-11.7,11.7-11.7h128.8c6.4,0,11.7,5.3,11.7,11.7
	v88.2C781.6,527.2,776.3,532.5,769.9,532.5z"/>
<path class="st1" d="M552.1,532.5H423.3c-6.4,0-11.7-5.3-11.7-11.7v-88.2c0-6.4,5.3-11.7,11.7-11.7h128.8c6.4,0,11.7,5.3,11.7,11.7
	v88.2C563.8,527.2,558.6,532.5,552.1,532.5z"/>
<path class="st1" d="M334.6,532.5H205.7c-6.4,0-11.7-5.3-11.7-11.7v-88.2c0-6.4,5.3-11.7,11.7-11.7h128.8c6.4,0,11.7,5.3,11.7,11.7
	v88.2C346.3,527.2,341,532.5,334.6,532.5z"/>
<circle class="st1" cx="312.6" cy="741.1" r="74.4"/>
<circle class="st1" cx="657" cy="741.1" r="74.4"/>
</svg>
