<?xml version="1.0" encoding="utf-8"?>
<!-- Generator: Adobe Illustrator 18.0.0, SVG Export Plug-In . SVG Version: 6.00 Build 0)  -->
<!DOCTYPE svg PUBLIC "-//W3C//DTD SVG 1.1//EN" "http://www.w3.org/Graphics/SVG/1.1/DTD/svg11.dtd">
<svg version="1.1" id="图层_1" xmlns="http://www.w3.org/2000/svg" xmlns:xlink="http://www.w3.org/1999/xlink" x="0px" y="0px"
	 viewBox="0 0 1000 1000" style="enable-background:new 0 0 1000 1000;" xml:space="preserve">
<style type="text/css">
	.st0{fill:none;stroke:#040000;stroke-width:50;stroke-linecap:round;stroke-linejoin:round;stroke-miterlimit:10;}
	.st1{fill:none;stroke:#040000;stroke-width:50;stroke-miterlimit:10;}
	.st2{fill:none;stroke:#040000;stroke-width:50;stroke-linecap:round;stroke-miterlimit:10;}
	.st3{fill:#040000;}
	.st4{fill:none;stroke:#040000;stroke-width:50;stroke-linejoin:round;stroke-miterlimit:10;}
</style>
<g>
	<path class="st0" d="M701.7,358.5c0-125-102.2-227.3-227.3-227.3l0,0c-125,0-227.3,102.2-227.3,227.3"/>
	<path class="st0" d="M247.1,363.4v101.8c0,54.2-14.5,107.3-41.9,154.1l-50.9,86.8c-12.5,21.4,2.8,48.2,27.6,48.2h594.3
		c23.2,0,37.8-25.2,26.1-45.3l-48.2-82.9c-30.3-52.1-47.2-111-48.9-171.3l-3.6-96.2v18.1"/>
</g>
<path class="st0" d="M590.8,777.3c0,63-51.1,114.1-114.1,114.1s-114.1-51.1-114.1-114.1"/>
</svg>
