<?xml version="1.0" encoding="utf-8"?>
<!-- Generator: Adobe Illustrator 18.0.0, SVG Export Plug-In . SVG Version: 6.00 Build 0)  -->
<!DOCTYPE svg PUBLIC "-//W3C//DTD SVG 1.1//EN" "http://www.w3.org/Graphics/SVG/1.1/DTD/svg11.dtd">
<svg version="1.1" id="图层_1" xmlns="http://www.w3.org/2000/svg" xmlns:xlink="http://www.w3.org/1999/xlink" x="0px" y="0px"
	 viewBox="0 0 1000 1000" style="enable-background:new 0 0 1000 1000;" xml:space="preserve">
<style type="text/css">
	.st0{fill:none;stroke:#040000;stroke-width:50;stroke-linecap:round;stroke-linejoin:round;stroke-miterlimit:10;}
	.st1{fill:none;stroke:#040000;stroke-width:50;stroke-miterlimit:10;}
	.st2{fill:none;stroke:#040000;stroke-width:50;stroke-linecap:round;stroke-miterlimit:10;}
	.st3{fill:#040000;}
	.st4{fill:none;stroke:#040000;stroke-width:50;stroke-linejoin:round;stroke-miterlimit:10;}
</style>
<path class="st0" d="M728.9,858.3H250.5c-6.4,0-11.7-5.3-11.7-11.7V251.1c0-6.4,5.3-11.7,11.7-11.7h478.3c6.4,0,11.7,5.3,11.7,11.7
	v595.5C740.6,853.1,735.3,858.3,728.9,858.3z"/>
<path class="st0" d="M350.4,465.7c59.8-0.4,286.6,0.3,286.6,0.3"/>
<path class="st0" d="M350.4,395.1c59.8-0.4,286.6,0.3,286.6,0.3"/>
<path class="st0" d="M350.4,321.8c59.8-0.4,286.6,0.3,286.6,0.3"/>
<path class="st0" d="M556.6,538.2c5.5-0.9,76,0,76,0"/>
<circle class="st0" cx="427.8" cy="666.4" r="117.3"/>
<polygon class="st3" points="428.8,590.9 407.1,636.3 356.6,642.7 393.1,678.3 384.5,727.6 429.6,705.3 473.5,728.7 465.7,678.9 
	501.4,643.6 451.5,636.3 "/>
</svg>
