<?xml version="1.0" encoding="utf-8"?>
<!-- Generator: Adobe Illustrator 18.0.0, SVG Export Plug-In . SVG Version: 6.00 Build 0)  -->
<!DOCTYPE svg PUBLIC "-//W3C//DTD SVG 1.1//EN" "http://www.w3.org/Graphics/SVG/1.1/DTD/svg11.dtd">
<svg version="1.1" id="图层_1" xmlns="http://www.w3.org/2000/svg" xmlns:xlink="http://www.w3.org/1999/xlink" x="0px" y="0px"
	 viewBox="0 0 1000 1000" style="enable-background:new 0 0 1000 1000;" xml:space="preserve">
<style type="text/css">
	.st0{fill:none;stroke:#040000;stroke-width:50;stroke-linecap:round;stroke-linejoin:round;stroke-miterlimit:10;}
	.st1{fill:none;stroke:#040000;stroke-width:50;stroke-miterlimit:10;}
	.st2{fill:none;stroke:#040000;stroke-width:50;stroke-linecap:round;stroke-miterlimit:10;}
	.st3{fill:#040000;}
	.st4{fill:none;stroke:#040000;stroke-width:50;stroke-linejoin:round;stroke-miterlimit:10;}
</style>
<path class="st0" d="M773,798.3H161.7c-6.4,0-11.7-5.3-11.7-11.7V367.2c0-6.4,5.3-11.7,11.7-11.7H773c6.4,0,11.7,5.3,11.7,11.7
	v419.3C784.7,793,779.4,798.3,773,798.3z"/>
<path class="st0" d="M511.8,569.2c68.3-23.5,190.2-64.8,245-83.4c16.7-5.7,27.9-21.3,27.9-38.9v-35.3"/>
<path class="st0" d="M150,401.2v38.6c0,17.1,10.5,32.4,26.6,38.4c53.9,20.3,176.5,66.6,242.5,91.5"/>
<path class="st0" d="M493.2,628.8H437c-6.4,0-11.7-5.3-11.7-11.7v-83.5c0-6.4,5.3-11.7,11.7-11.7h56.2c6.4,0,11.7,5.3,11.7,11.7
	v83.5C504.9,623.6,499.6,628.8,493.2,628.8z"/>
<path class="st0" d="M602.5,355.5H330c-6.4,0-11.7-5.3-11.7-11.7v-51.2c0-27,22.1-49,49-49h197.9c27,0,49,22.1,49,49v51.2
	C614.2,350.2,608.9,355.5,602.5,355.5z"/>
</svg>
