<?xml version="1.0" encoding="utf-8"?>
<!-- Generator: Adobe Illustrator 18.0.0, SVG Export Plug-In . SVG Version: 6.00 Build 0)  -->
<!DOCTYPE svg PUBLIC "-//W3C//DTD SVG 1.1//EN" "http://www.w3.org/Graphics/SVG/1.1/DTD/svg11.dtd">
<svg version="1.1" id="图层_1" xmlns="http://www.w3.org/2000/svg" xmlns:xlink="http://www.w3.org/1999/xlink" x="0px" y="0px"
	 viewBox="0 0 1000 1000" style="enable-background:new 0 0 1000 1000;" xml:space="preserve">
<style type="text/css">
	.st0{fill:none;stroke:#040000;stroke-width:50;stroke-linecap:round;stroke-linejoin:round;stroke-miterlimit:10;}
	.st1{fill:none;stroke:#040000;stroke-width:50;stroke-miterlimit:10;}
	.st2{fill:none;stroke:#040000;stroke-width:50;stroke-linecap:round;stroke-miterlimit:10;}
	.st3{fill:#040000;}
	.st4{fill:none;stroke:#040000;stroke-width:50;stroke-linejoin:round;stroke-miterlimit:10;}
</style>
<g>
	<path class="st3" d="M528,206.5c-9.4-4.5-20.6-3.3-28.8,3.2c-0.4,0.3-40.2,32-84.3,64.5c-76.6,56.4-98.9,65.8-103.4,67.3H191.7
		c-22.5,0-42.1,9.3-55.5,26.2c-11.5,14.6-17.6,33.6-17.6,55.1v239.4c0,44.8,36.4,81.2,81.2,81.2h33.6c15,0,27.2-12.2,27.2-27.2
		c0-15-12.2-27.2-27.2-27.2h-33.6c-14.7,0-26.8-12-26.8-26.9V422.7c0-10.1,2.4-26.9,18.6-26.9h121.5c14,0,35.4-5.8,128.7-74.1
		c16.6-12.2,32.9-24.4,47-35.2v507.7c-11.3-9.6-24-20.1-36.9-30.6c-85.4-69.1-106.4-74.9-120.8-74.9l0,0c-15,0-27.2,12.2-27.2,27.2
		c0,14.3,10.9,26,24.9,27.1c4,1.4,24.6,10.5,93.8,66.9c39.6,32.2,75,63.7,75.4,64.1c5.1,4.5,11.5,6.8,18.1,6.8
		c3.8,0,7.6-0.8,11.1-2.4c9.8-4.4,16-14.1,16-24.8V231.1C543.4,220.6,537.3,211,528,206.5L528,206.5z M738.6,252.9
		c-13.3-7-29.8-2.1-36.8,11.2c-7,13.3-2.1,29.8,11.2,36.8c89.6,47.6,145.2,139.8,145.2,240.7S802.6,734.8,713,782.4
		c-13.3,7-18.4,23.5-11.2,36.8c4.9,9.2,14.4,14.5,24,14.5c4.3,0,8.7-1.1,12.8-3.2C846,773.3,912.7,662.7,912.7,541.7
		C912.7,420.6,846,310,738.6,252.9L738.6,252.9z M742,643c18.7-30.3,28.7-65.3,28.7-101.3c0-35.9-10-71-28.7-101.3
		c-18.4-29.5-44.2-53.3-74.9-68.8c-13.4-6.8-29.8-1.5-36.6,12c-6.8,13.4-1.5,29.8,12,36.6c45.5,23,73.8,69.6,73.8,121.6
		s-28.2,98.5-73.7,121.6c-13.4,6.8-18.7,23.1-12,36.6c4.8,9.5,14.4,14.9,24.3,14.9c4.1,0,8.3-1,12.3-2.9
		C697.9,696.3,723.8,672.5,742,643L742,643z"/>
</g>
</svg>
