<?xml version="1.0" encoding="utf-8"?>
<!-- Generator: Adobe Illustrator 18.0.0, SVG Export Plug-In . SVG Version: 6.00 Build 0)  -->
<!DOCTYPE svg PUBLIC "-//W3C//DTD SVG 1.1//EN" "http://www.w3.org/Graphics/SVG/1.1/DTD/svg11.dtd">
<svg version="1.1" id="图层_1" xmlns="http://www.w3.org/2000/svg" xmlns:xlink="http://www.w3.org/1999/xlink" x="0px" y="0px"
	 viewBox="0 0 1000 1000" style="enable-background:new 0 0 1000 1000;" xml:space="preserve">
<style type="text/css">
	.st0{fill:none;stroke:#040000;stroke-width:50;stroke-linecap:round;stroke-linejoin:round;stroke-miterlimit:10;}
	.st1{fill:none;stroke:#040000;stroke-width:50;stroke-miterlimit:10;}
	.st2{fill:none;stroke:#040000;stroke-width:50;stroke-linecap:round;stroke-miterlimit:10;}
	.st3{fill:#040000;}
	.st4{fill:none;stroke:#040000;stroke-width:50;stroke-linejoin:round;stroke-miterlimit:10;}
</style>
<path class="st0" d="M458.7,836.6c0,0-282.6,32.2-364.3-188.7C94.5,647.9,381.5,630.2,458.7,836.6z"/>
<path class="st0" d="M458.7,836.6c0,0,282.6,32.2,364.3-188.7C823,647.9,536,630.2,458.7,836.6z"/>
<path class="st0" d="M451.8,648.9c0,0-204.1-20.7-227.7-188.9C224.1,460,429,491.5,451.8,648.9z"/>
<path class="st0" d="M452.6,648.9c0,0,204.1-20.7,227.7-188.9C680.3,460,475.3,491.5,452.6,648.9z"/>
<path class="st0" d="M451.8,452c0,0-204.1-20.7-227.7-188.9C224.1,263.1,429,294.7,451.8,452z"/>
<path class="st0" d="M452.6,452c0,0,204.1-20.7,227.7-188.9C680.3,263.1,475.3,294.7,452.6,452z"/>
<path class="st0" d="M467.2,139.1c0,0-101.2,134.7-10.7,262.6C456.5,401.7,571.4,306.3,467.2,139.1z"/>
<line class="st0" x1="451.8" y1="401.7" x2="451.8" y2="930.4"/>
</svg>
