<?xml version="1.0" encoding="utf-8"?>
<!-- Generator: Adobe Illustrator 18.0.0, SVG Export Plug-In . SVG Version: 6.00 Build 0)  -->
<!DOCTYPE svg PUBLIC "-//W3C//DTD SVG 1.1//EN" "http://www.w3.org/Graphics/SVG/1.1/DTD/svg11.dtd">
<svg version="1.1" id="图层_1" xmlns="http://www.w3.org/2000/svg" xmlns:xlink="http://www.w3.org/1999/xlink" x="0px" y="0px"
	 viewBox="0 0 1000 1000" style="enable-background:new 0 0 1000 1000;" xml:space="preserve">
<style type="text/css">
	.st0{fill:none;stroke:#040000;stroke-width:50;stroke-linecap:round;stroke-linejoin:round;stroke-miterlimit:10;}
	.st1{fill:none;stroke:#040000;stroke-width:50;stroke-miterlimit:10;}
	.st2{fill:none;stroke:#040000;stroke-width:50;stroke-linecap:round;stroke-miterlimit:10;}
	.st3{fill:#040000;}
	.st4{fill:none;stroke:#040000;stroke-width:50;stroke-linejoin:round;stroke-miterlimit:10;}
</style>
<path class="st1" d="M463.1,498.6H245c-6.4,0-11.7-5.3-11.7-11.7V268.8c0-6.4,5.3-11.7,11.7-11.7h218.1c6.4,0,11.7,5.3,11.7,11.7
	v218.1C474.8,493.3,469.5,498.6,463.1,498.6z"/>
<path class="st1" d="M788.6,498.6H570.5c-6.4,0-11.7-5.3-11.7-11.7V268.8c0-6.4,5.3-11.7,11.7-11.7h218.1c6.4,0,11.7,5.3,11.7,11.7
	v218.1C800.3,493.3,795,498.6,788.6,498.6z"/>
<path class="st1" d="M463.1,822H245c-6.4,0-11.7-5.3-11.7-11.7V592.3c0-6.4,5.3-11.7,11.7-11.7h218.1c6.4,0,11.7,5.3,11.7,11.7
	v218.1C474.8,816.8,469.5,822,463.1,822z"/>
<path class="st1" d="M788.6,822H570.5c-6.4,0-11.7-5.3-11.7-11.7V592.3c0-6.4,5.3-11.7,11.7-11.7h218.1c6.4,0,11.7,5.3,11.7,11.7
	v218.1C800.3,816.8,795,822,788.6,822z"/>
</svg>
