<?xml version="1.0" encoding="utf-8"?>
<!-- Generator: Adobe Illustrator 18.0.0, SVG Export Plug-In . SVG Version: 6.00 Build 0)  -->
<!DOCTYPE svg PUBLIC "-//W3C//DTD SVG 1.1//EN" "http://www.w3.org/Graphics/SVG/1.1/DTD/svg11.dtd">
<svg version="1.1" id="图层_1" xmlns="http://www.w3.org/2000/svg" xmlns:xlink="http://www.w3.org/1999/xlink" x="0px" y="0px"
	 viewBox="0 0 1000 1000" style="enable-background:new 0 0 1000 1000;" xml:space="preserve">
<style type="text/css">
	.st0{fill:none;stroke:#040000;stroke-width:50;stroke-linecap:round;stroke-linejoin:round;stroke-miterlimit:10;}
	.st1{fill:none;stroke:#040000;stroke-width:50;stroke-miterlimit:10;}
	.st2{fill:none;stroke:#040000;stroke-width:50;stroke-linecap:round;stroke-miterlimit:10;}
	.st3{fill:#040000;}
	.st4{fill:none;stroke:#040000;stroke-width:50;stroke-linejoin:round;stroke-miterlimit:10;}
</style>
<path class="st4" d="M239,339.7v391.4c0,21.5,17.4,38.9,38.9,38.9h565c21.5,0,38.9-17.4,38.9-38.9V343.3l-312.7,97.7L239,339.7z"/>
<path class="st4" d="M383.6,378.5c-0.7-2-0.4-68.8-0.1-105c0.1-12.5,10.2-22.6,22.7-22.6H729c12.5,0,22.7,10.2,22.7,22.7v113"/>
<line class="st2" x1="462.3" y1="348.6" x2="672" y2="348.6"/>
<path class="st0" d="M310.4,348.6l-25.5-62.2c-5.5-13.3,0.6-28.4,13.6-34.3l247.4-112.6c13-5.9,28.3-0.6,34.8,12.2l46.3,91.2"/>
<polyline class="st0" points="506.6,492.1 561.3,576.5 622.9,492.1 "/>
<line class="st0" x1="484.2" y1="580.1" x2="641" y2="580.1"/>
<line class="st0" x1="484.2" y1="655.4" x2="641" y2="655.4"/>
<line class="st0" x1="564.7" y1="713.9" x2="564.7" y2="576.5"/>
</svg>
