<?xml version="1.0" encoding="utf-8"?>
<!-- Generator: Adobe Illustrator 18.0.0, SVG Export Plug-In . SVG Version: 6.00 Build 0)  -->
<!DOCTYPE svg PUBLIC "-//W3C//DTD SVG 1.1//EN" "http://www.w3.org/Graphics/SVG/1.1/DTD/svg11.dtd">
<svg version="1.1" id="图层_1" xmlns="http://www.w3.org/2000/svg" xmlns:xlink="http://www.w3.org/1999/xlink" x="0px" y="0px"
	 viewBox="0 0 1000 1000" style="enable-background:new 0 0 1000 1000;" xml:space="preserve">
<style type="text/css">
	.st0{fill:none;stroke:#040000;stroke-width:50;stroke-linecap:round;stroke-linejoin:round;stroke-miterlimit:10;}
	.st1{fill:none;stroke:#040000;stroke-width:50;stroke-miterlimit:10;}
	.st2{fill:none;stroke:#040000;stroke-width:50;stroke-linecap:round;stroke-miterlimit:10;}
	.st3{fill:#040000;}
	.st4{fill:none;stroke:#040000;stroke-width:50;stroke-linejoin:round;stroke-miterlimit:10;}
</style>
<g>
	<path class="st2" d="M184.1,407.1c0-150.6,122.1-272.7,272.7-272.7s272.7,122.1,272.7,272.7c0,56.4-17.2,109-46.6,152.4"/>
	<path class="st0" d="M785.1,674c-3-3-229.4-92-232.4-90.9c-3,1-28.3,3-21.2,25.3c7,22.3,40.4,73.7,40.4,73.7s-196,12.1-262.7-42.5
		c-66.7-54.6-127.3-126.3-151.6-129.3s-53.5,62.7-10.1,119.2S283,786.2,398.2,796.3c115.2,10.1,387,0,387,0L785.1,674L785.1,674z"/>
	<polyline class="st0" points="380,244.6 459.7,321.4 540.6,247.2 	"/>
	<line class="st0" x1="461.2" y1="546.2" x2="461.2" y2="332.5"/>
	<line class="st0" x1="373.8" y1="376.5" x2="540.6" y2="376.5"/>
	<line class="st0" x1="373.8" y1="455.8" x2="540.6" y2="455.8"/>
</g>
</svg>
