<?xml version="1.0" encoding="utf-8"?>
<!-- Generator: Adobe Illustrator 18.0.0, SVG Export Plug-In . SVG Version: 6.00 Build 0)  -->
<!DOCTYPE svg PUBLIC "-//W3C//DTD SVG 1.1//EN" "http://www.w3.org/Graphics/SVG/1.1/DTD/svg11.dtd">
<svg version="1.1" id="图层_1" xmlns="http://www.w3.org/2000/svg" xmlns:xlink="http://www.w3.org/1999/xlink" x="0px" y="0px"
	 viewBox="0 0 1000 1000" style="enable-background:new 0 0 1000 1000;" xml:space="preserve">
<style type="text/css">
	.st0{fill:none;stroke:#040000;stroke-width:50;stroke-linecap:round;stroke-linejoin:round;stroke-miterlimit:10;}
	.st1{fill:none;stroke:#040000;stroke-width:50;stroke-miterlimit:10;}
	.st2{fill:none;stroke:#040000;stroke-width:50;stroke-linecap:round;stroke-miterlimit:10;}
	.st3{fill:#040000;}
	.st4{fill:none;stroke:#040000;stroke-width:50;stroke-linejoin:round;stroke-miterlimit:10;}
</style>
<line class="st2" x1="162.3" y1="463.5" x2="162.3" y2="720.7"/>
<line class="st2" x1="517.8" y1="463.5" x2="517.8" y2="720.7"/>
<ellipse class="st2" cx="340.1" cy="452.7" rx="177.7" ry="64.8"/>
<path class="st2" d="M517.8,546.7c0,35.8-79.6,64.8-177.7,64.8c-98.1,0-177.7-29-177.7-64.8"/>
<path class="st2" d="M517.8,633.1c0,35.8-79.6,64.8-177.7,64.8c-98.1,0-177.7-29-177.7-64.8"/>
<path class="st2" d="M517.8,728.8c0,35.8-79.6,64.8-177.7,64.8c-98.1,0-177.7-29-177.7-64.8"/>
<line class="st2" x1="413" y1="256.3" x2="413" y2="383.8"/>
<line class="st2" x1="768.6" y1="256.3" x2="768.6" y2="610.7"/>
<ellipse class="st2" cx="590.8" cy="253" rx="177.7" ry="64.8"/>
<path class="st2" d="M768.6,436.7c0,35.8-79.6,64.8-177.7,64.8c-18.5,0-36.2-1-52.9-2.9"/>
<path class="st2" d="M768.6,343.5c0,35.8-79.6,64.8-177.7,64.8s-177.7-29-177.7-64.8"/>
<path class="st2" d="M768.6,523.2c0,35.8-79.6,64.8-177.7,64.8c-18.5,0-36.2-1-52.9-2.9"/>
<path class="st2" d="M768.6,615.6c0,35.8-79.6,64.8-177.7,64.8c-18.5,0-36.2-1-52.9-2.9"/>
</svg>
