<?xml version="1.0" encoding="utf-8"?>
<!-- Generator: Adobe Illustrator 18.0.0, SVG Export Plug-In . SVG Version: 6.00 Build 0)  -->
<!DOCTYPE svg PUBLIC "-//W3C//DTD SVG 1.1//EN" "http://www.w3.org/Graphics/SVG/1.1/DTD/svg11.dtd">
<svg version="1.1" id="图层_1" xmlns="http://www.w3.org/2000/svg" xmlns:xlink="http://www.w3.org/1999/xlink" x="0px" y="0px"
	 viewBox="0 0 1000 1000" style="enable-background:new 0 0 1000 1000;" xml:space="preserve">
<style type="text/css">
	.st0{fill:#020000;}
	.st1{fill-rule:evenodd;clip-rule:evenodd;}
	.st2{fill:#020202;}
	.st3{fill:#5A9BFD;stroke:#5A9BFD;stroke-width:40;stroke-linecap:round;stroke-miterlimit:10;}
	.st4{fill:none;stroke:#FFFFFF;stroke-width:40;stroke-linecap:round;stroke-miterlimit:10;}
	.st5{fill:none;stroke:#020000;stroke-width:50;stroke-linecap:round;stroke-miterlimit:10;}
	.st6{fill:none;}
	.st7{fill:none;stroke:#000000;stroke-width:50;stroke-linecap:round;stroke-linejoin:round;stroke-miterlimit:10;}
</style>
<g>
	<path class="st2" d="M501.7,934c-57.3,0-112.9-11.2-165.3-33.4c-50.6-21.4-96-52-135-91c-39-39-69.6-84.4-91-135
		c-22.2-52.4-33.4-108-33.4-165.3c0-57.3,11.2-112.9,33.4-165.3c21.4-50.6,52-96,91-135s84.4-69.6,135-91
		c52.4-22.2,108-33.4,165.3-33.4S614.7,95.9,667,118.1c50.6,21.4,96,52,135,91c39,39,69.6,84.4,91,135
		c22.2,52.4,33.4,108,33.4,165.3c0,57.3-11.2,112.9-33.4,165.3c-21.4,50.6-52,96-91,135c-39,39-84.4,69.6-135,91
		C614.7,922.8,559.1,934,501.7,934z M501.7,134.7c-206.6,0-374.7,168.1-374.7,374.7S295.2,884,501.7,884s374.7-168.1,374.7-374.7
		S708.3,134.7,501.7,134.7z"/>
</g>
<g>
	<path class="st2" d="M491.9,775.2c-13.8,0-25-11.2-25-25V281.9c0-13.8,11.2-25,25-25s25,11.2,25,25v468.3
		C516.9,764,505.7,775.2,491.9,775.2z"/>
</g>
<g>
	<path class="st2" d="M719.6,541H251.3c-13.8,0-25-11.2-25-25c0-13.8,11.2-25,25-25h468.3c13.8,0,25,11.2,25,25
		C744.6,529.9,733.4,541,719.6,541z"/>
</g>
</svg>
