<?xml version="1.0" encoding="utf-8"?>
<!-- Generator: Adobe Illustrator 18.0.0, SVG Export Plug-In . SVG Version: 6.00 Build 0)  -->
<!DOCTYPE svg PUBLIC "-//W3C//DTD SVG 1.1//EN" "http://www.w3.org/Graphics/SVG/1.1/DTD/svg11.dtd">
<svg version="1.1" id="图层_1" xmlns="http://www.w3.org/2000/svg" xmlns:xlink="http://www.w3.org/1999/xlink" x="0px" y="0px"
	 viewBox="0 0 1000 1000" style="enable-background:new 0 0 1000 1000;" xml:space="preserve">
<style type="text/css">
	.st0{fill:#020000;}
	.st1{fill-rule:evenodd;clip-rule:evenodd;}
	.st2{fill:#020202;}
	.st3{fill:#5A9BFD;stroke:#5A9BFD;stroke-width:40;stroke-linecap:round;stroke-miterlimit:10;}
	.st4{fill:none;stroke:#FFFFFF;stroke-width:40;stroke-linecap:round;stroke-miterlimit:10;}
	.st5{fill:none;stroke:#020000;stroke-width:50;stroke-linecap:round;stroke-miterlimit:10;}
	.st6{fill:none;}
	.st7{fill:none;stroke:#000000;stroke-width:50;stroke-linecap:round;stroke-linejoin:round;stroke-miterlimit:10;}
</style>
<g>
	<g>
		<path class="st1" d="M418.4,735H265.6c-11.5,0-21-9.4-21-21V210.4c0-11.5,9.4-21,21-21h398.7c11.5,0,21,9.4,21,21v178.4
			c0,11.5,9.4,21,21,21c11.5,0,21-9.4,21-21V210.4c0-34.6-28.3-62.9-62.9-62.9H265.6c-34.6,0-62.9,28.3-62.9,62.9V714
			c0,34.6,28.3,62.9,62.9,62.9h152.8c11.5,0,21-9.4,21-21C439.4,744.5,429.9,735,418.4,735L418.4,735z"/>
	</g>
	<g>
		<path class="st1" d="M616.7,262.9H301.9c-11.5,0-21,9.4-21,21c0,11.5,9.4,21,21,21h314.7c11.5,0,21-9.4,21-21
			C637.6,272.3,628.2,262.9,616.7,262.9L616.7,262.9z M616.7,367.8H301.9c-11.5,0-21,9.4-21,21c0,11.5,9.4,21,21,21h314.7
			c11.5,0,21-9.4,21-21C637.6,377.3,628.2,367.8,616.7,367.8L616.7,367.8z M494.3,472.7H301.9c-11.5,0-21,9.4-21,21s9.4,21,21,21
			h192.3c11.5,0,21-9.4,21-21S505.8,472.7,494.3,472.7L494.3,472.7z M749.9,796.2H545.7c-10.5,0-19.2,8.7-19.2,19.2
			c0,10.5,8.7,19.2,19.2,19.2h204.2c10.5,0,18.9-8.4,19.2-19.6C769.1,804.6,760.4,796.2,749.9,796.2L749.9,796.2z M744.7,645.5
			h-40.2c-5.2-12.2,1.4-35.3,18.2-62.6l0.3-0.7v-0.4c0.4-0.3,0.7-1,0.7-1c7.3-14,14.7-31.5,14.7-54.2c0-50.7-39.9-90.9-90.9-91.3
			h-0.7c-51.1,0.3-90.6,40.6-90.6,91.3c0,22.7,7.3,39.9,14.7,53.9c0.4,1,0.7,1.7,1,2.1l0.4,0.4c16.8,27.3,23.4,50,18.2,62.6h-40.2
			c-22.7,0-40.9,18.9-40.9,42.3v67.5c0,9.4,7.7,17.1,17.1,17.1h242.3c9.4,0,16.8-7.7,16.8-16.8v-67.8
			C785.6,664.4,767.4,645.5,744.7,645.5L744.7,645.5z M747.8,733.6H547.1v-45.8c0-2.1,1.4-3.5,3.1-3.5h57l2.4-2.1
			c29.4-24.1,27.6-66.4-4.9-119.3c-6.6-12.9-10.5-23.1-10.5-36.4c0-29.7,23.1-52.5,53.2-52.8c30.4,0.3,53.2,23.1,53.2,52.8
			c0,13.6-3.8,23.8-10.5,36.4c-32.5,52.8-33.9,95.1-4.9,119.3l2.4,2.1h56.7c1.7,0,3.1,1.4,3.1,3.5v45.8H747.8L747.8,733.6z
			 M437.3,577.6H301.9c-11.5,0-21,9.4-21,21c0,11.5,9.4,21,21,21h135.3c11.5,0,21-9.4,21-21C458.2,587.1,448.8,577.6,437.3,577.6
			L437.3,577.6z"/>
	</g>
</g>
</svg>
