<?xml version="1.0" encoding="utf-8"?>
<!-- Generator: Adobe Illustrator 18.0.0, SVG Export Plug-In . SVG Version: 6.00 Build 0)  -->
<!DOCTYPE svg PUBLIC "-//W3C//DTD SVG 1.1//EN" "http://www.w3.org/Graphics/SVG/1.1/DTD/svg11.dtd">
<svg version="1.1" id="图层_1" xmlns="http://www.w3.org/2000/svg" xmlns:xlink="http://www.w3.org/1999/xlink" x="0px" y="0px"
	 viewBox="0 0 1000 1000" style="enable-background:new 0 0 1000 1000;" xml:space="preserve">
<g>
	<path d="M852.3,893.2c-6.4,0-12.8-2.4-17.7-7.3L88,139.2c-9.8-9.8-9.8-25.6,0-35.4c9.8-9.8,25.6-9.8,35.4,0L870,850.5
		c9.8,9.8,9.8,25.6,0,35.4C865.1,890.8,858.7,893.2,852.3,893.2z"/>
</g>
<g>
	<path d="M95.4,903.4c-6.4,0-12.8-2.4-17.7-7.3c-9.8-9.8-9.8-25.6,0-35.4l746.7-746.7c9.8-9.8,25.6-9.8,35.4,0
		c9.8,9.8,9.8,25.6,0,35.4L113.1,896.1C108.2,901,101.8,903.4,95.4,903.4z"/>
</g>
</svg>
