<?xml version="1.0" encoding="utf-8"?>
<!-- Generator: Adobe Illustrator 18.0.0, SVG Export Plug-In . SVG Version: 6.00 Build 0)  -->
<!DOCTYPE svg PUBLIC "-//W3C//DTD SVG 1.1//EN" "http://www.w3.org/Graphics/SVG/1.1/DTD/svg11.dtd">
<svg version="1.1" id="图层_1" xmlns="http://www.w3.org/2000/svg" xmlns:xlink="http://www.w3.org/1999/xlink" x="0px" y="0px"
	 viewBox="0 0 1000 1000" style="enable-background:new 0 0 1000 1000;" xml:space="preserve">
<style type="text/css">
	.st0{fill:#020000;}
	.st1{fill-rule:evenodd;clip-rule:evenodd;}
	.st2{fill:#020202;}
	.st3{fill:#5A9BFD;stroke:#5A9BFD;stroke-width:40;stroke-linecap:round;stroke-miterlimit:10;}
	.st4{fill:none;stroke:#FFFFFF;stroke-width:40;stroke-linecap:round;stroke-miterlimit:10;}
	.st5{fill:none;stroke:#020000;stroke-width:50;stroke-linecap:round;stroke-miterlimit:10;}
	.st6{fill:none;}
	.st7{fill:none;stroke:#000000;stroke-width:50;stroke-linecap:round;stroke-linejoin:round;stroke-miterlimit:10;}
</style>
<g>
	<path d="M764.8,816.4h-522c-34.7,0-63-28.2-63-63v-522c0-34.7,28.2-63,63-63h522c34.7,0,63,28.2,63,63v522
		C827.8,788.2,799.6,816.4,764.8,816.4z M242.8,218.4c-7,0-13,5.9-13,13v522c0,7,5.9,13,13,13h522c7,0,13-5.9,13-13v-522
		c0-7-5.9-13-13-13H242.8z"/>
</g>
<g>
	<path d="M802.8,380.9h-598c-13.8,0-25-11.2-25-25s11.2-25,25-25h598c13.8,0,25,11.2,25,25S816.6,380.9,802.8,380.9z"/>
</g>
<g>
	<path d="M455.8,715.2c-6.6,0-13-2.6-17.7-7.3L308.4,578.1c-9.8-9.8-9.8-25.6,0-35.4c9.8-9.8,25.6-9.8,35.4,0l112,112L657,453.7
		c9.8-9.8,25.6-9.8,35.4,0c9.8,9.8,9.8,25.6,0,35.4L473.5,707.8C468.8,712.5,462.5,715.2,455.8,715.2z"/>
</g>
</svg>
