<?xml version="1.0" encoding="utf-8"?>
<!-- Generator: Adobe Illustrator 18.0.0, SVG Export Plug-In . SVG Version: 6.00 Build 0)  -->
<!DOCTYPE svg PUBLIC "-//W3C//DTD SVG 1.1//EN" "http://www.w3.org/Graphics/SVG/1.1/DTD/svg11.dtd">
<svg version="1.1" id="图层_1" xmlns="http://www.w3.org/2000/svg" xmlns:xlink="http://www.w3.org/1999/xlink" x="0px" y="0px"
	 viewBox="0 0 1000 1000" style="enable-background:new 0 0 1000 1000;" xml:space="preserve">
<style type="text/css">
	.st0{fill:#020000;}
	.st1{fill-rule:evenodd;clip-rule:evenodd;}
	.st2{fill:#020202;}
	.st3{fill:#5A9BFD;stroke:#5A9BFD;stroke-width:40;stroke-linecap:round;stroke-miterlimit:10;}
	.st4{fill:none;stroke:#FFFFFF;stroke-width:40;stroke-linecap:round;stroke-miterlimit:10;}
	.st5{fill:none;stroke:#020000;stroke-width:50;stroke-linecap:round;stroke-miterlimit:10;}
	.st6{fill:none;}
	.st7{fill:none;stroke:#000000;stroke-width:50;stroke-linecap:round;stroke-linejoin:round;stroke-miterlimit:10;}
</style>
<g>
	<path d="M839.9,309.4H148c-13.8,0-25-11.2-25-25s11.2-25,25-25h691.8c13.8,0,25,11.2,25,25S853.7,309.4,839.9,309.4z"/>
</g>
<g>
	<path d="M703.6,309.4H280v-85.5c0-51.6,41.9-93.5,93.5-93.5h236.6c51.6,0,93.5,41.9,93.5,93.5V309.4z M330,259.4h323.6v-35.5
		c0-24-19.5-43.5-43.5-43.5H373.5c-24,0-43.5,19.5-43.5,43.5V259.4z"/>
</g>
<g>
	<path d="M680,869.6H315.4c-48,0-87-39-87-87V380.4c0-13.8,11.2-25,25-25c13.8,0,25,11.2,25,25v402.2c0,20.4,16.6,37,37,37H680
		c20.4,0,37-16.6,37-37V380.4c0-13.8,11.2-25,25-25c13.8,0,25,11.2,25,25v402.2C767.1,830.6,728,869.6,680,869.6z"/>
</g>
<g>
	<path d="M413.4,718.9c-13.8,0-25-11.2-25-25V380.4c0-13.8,11.2-25,25-25s25,11.2,25,25v313.4C438.4,707.7,427.2,718.9,413.4,718.9z
		"/>
</g>
<g>
	<path d="M572,718.9c-13.8,0-25-11.2-25-25V380.4c0-13.8,11.2-25,25-25s25,11.2,25,25v313.4C597,707.7,585.8,718.9,572,718.9z"/>
</g>
</svg>
