<?xml version="1.0" encoding="utf-8"?>
<!-- Generator: Adobe Illustrator 18.0.0, SVG Export Plug-In . SVG Version: 6.00 Build 0)  -->
<!DOCTYPE svg PUBLIC "-//W3C//DTD SVG 1.1//EN" "http://www.w3.org/Graphics/SVG/1.1/DTD/svg11.dtd">
<svg version="1.1" id="图层_1" xmlns="http://www.w3.org/2000/svg" xmlns:xlink="http://www.w3.org/1999/xlink" x="0px" y="0px"
	 viewBox="0 0 1000 1000" style="enable-background:new 0 0 1000 1000;" xml:space="preserve">
<style type="text/css">
	.st0{fill:#020000;}
	.st1{fill-rule:evenodd;clip-rule:evenodd;}
	.st2{fill:#020202;}
	.st3{fill:#5A9BFD;stroke:#5A9BFD;stroke-width:40;stroke-linecap:round;stroke-miterlimit:10;}
	.st4{fill:none;stroke:#FFFFFF;stroke-width:40;stroke-linecap:round;stroke-miterlimit:10;}
	.st5{fill:none;stroke:#020000;stroke-width:50;stroke-linecap:round;stroke-miterlimit:10;}
	.st6{fill:none;}
	.st7{fill:none;stroke:#000000;stroke-width:50;stroke-linecap:round;stroke-linejoin:round;stroke-miterlimit:10;}
</style>
<g>
	<path class="st0" d="M497.7,923.4c-56.9,0-112.1-11.1-164.1-33.1c-50.2-21.2-95.3-51.6-134-90.3s-69.1-83.8-90.3-134
		c-22-52-33.1-107.2-33.1-164.1c0-56.9,11.1-112.1,33.1-164.1c21.2-50.2,51.6-95.3,90.3-134c38.7-38.7,83.8-69.1,134-90.3
		c52-22,107.2-33.1,164.1-33.1c91.7,0,179,29,252.2,83.8c35.2,26.4,66,57.9,91.5,93.7c25.8,36.3,45.6,76.3,58.8,118.7
		c4.1,13.2-3.3,27.2-16.4,31.3c-13.2,4.1-27.2-3.3-31.3-16.4c-48.6-156.1-191.2-261-354.8-261c-204.9,0-371.5,166.7-371.5,371.5
		s166.7,371.5,371.5,371.5c166.3,0,313.5-111.8,358-271.8c3.7-13.3,17.5-21.1,30.8-17.4c13.3,3.7,21.1,17.5,17.4,30.8
		c-12.2,43.9-31.4,85.4-57.1,123.3c-25.3,37.3-56.2,70.1-91.9,97.6c-36.1,27.8-76.1,49.5-119,64.3
		C591.6,915.6,545.1,923.4,497.7,923.4z"/>
</g>
<g>
	<path class="st0" d="M646,526.9H373.9c-13.8,0-25-11.2-25-25s11.2-25,25-25H646c13.8,0,25,11.2,25,25S659.8,526.9,646,526.9z"/>
</g>
<g>
	<path class="st0" d="M530,652.2c-6.4,0-12.8-2.4-17.7-7.3c-9.8-9.8-9.8-25.6,0-35.4L620,501.8L503.9,384.6
		c-9.7-9.8-9.7-25.6,0.2-35.4c9.8-9.7,25.6-9.7,35.4,0.2l133.7,134.9c9.7,9.8,9.7,25.5-0.1,35.3L547.6,644.9
		C542.8,649.8,536.4,652.2,530,652.2z"/>
</g>
</svg>
