<?xml version="1.0" encoding="utf-8"?>
<!-- Generator: Adobe Illustrator 18.0.0, SVG Export Plug-In . SVG Version: 6.00 Build 0)  -->
<!DOCTYPE svg PUBLIC "-//W3C//DTD SVG 1.1//EN" "http://www.w3.org/Graphics/SVG/1.1/DTD/svg11.dtd">
<svg version="1.1" id="图层_1" xmlns="http://www.w3.org/2000/svg" xmlns:xlink="http://www.w3.org/1999/xlink" x="0px" y="0px"
	 viewBox="0 0 1000 1000" style="enable-background:new 0 0 1000 1000;" xml:space="preserve">
<style type="text/css">
	.st0{fill:#020000;}
	.st1{fill-rule:evenodd;clip-rule:evenodd;}
	.st2{fill:#020202;}
	.st3{fill:#5A9BFD;stroke:#5A9BFD;stroke-width:40;stroke-linecap:round;stroke-miterlimit:10;}
	.st4{fill:none;stroke:#FFFFFF;stroke-width:40;stroke-linecap:round;stroke-miterlimit:10;}
	.st5{fill:none;stroke:#020000;stroke-width:50;stroke-linecap:round;stroke-miterlimit:10;}
	.st6{fill:none;}
	.st7{fill:none;stroke:#000000;stroke-width:50;stroke-linecap:round;stroke-linejoin:round;stroke-miterlimit:10;}
</style>
<g>
	<path class="st0" d="M756.4,826.6H284.1c-41,0-74.4-33.4-74.4-74.4V536.7c0-13.8,11.2-25,25-25c13.8,0,25,11.2,25,25v215.5
		c0,13.4,10.9,24.4,24.4,24.4h472.2c13.4,0,24.4-10.9,24.4-24.4V280c0-13.4-10.9-24.4-24.4-24.4h-220c-13.8,0-25-11.2-25-25
		s11.2-25,25-25h220c41,0,74.4,33.4,74.4,74.4v472.2C830.7,793.2,797.4,826.6,756.4,826.6z"/>
</g>
<g>
	<path class="st0" d="M520.2,588.4c-12.6,0-23.4-9.5-24.8-22.3c-13.5-124.3-67.9-218.8-161.7-280.8c-70-46.3-135.8-56.2-136.5-56.3
		c-13.7-2-23.2-14.6-21.2-28.3c2-13.7,14.6-23.2,28.3-21.2c3.1,0.4,77.7,11.6,157,64.1c46.7,30.9,85.6,69.9,115.4,115.7
		c37.1,57,60.1,124.8,68.4,201.3c1.5,13.7-8.4,26.1-22.1,27.6C522,588.3,521.1,588.4,520.2,588.4z"/>
</g>
<g>
	<path class="st0" d="M525.3,605.7c-4.9,0-9.9-1.4-14.2-4.4L361,497.6c-11.4-7.8-14.2-23.4-6.4-34.8c7.8-11.4,23.4-14.2,34.8-6.4
		l130.8,90.3l96.5-123.4c8.5-10.9,24.2-12.8,35.1-4.3c10.9,8.5,12.8,24.2,4.3,35.1L545,596.1C540.1,602.3,532.7,605.7,525.3,605.7z"
		/>
</g>
</svg>
