<?xml version="1.0" encoding="utf-8"?>
<!-- Generator: Adobe Illustrator 18.0.0, SVG Export Plug-In . SVG Version: 6.00 Build 0)  -->
<!DOCTYPE svg PUBLIC "-//W3C//DTD SVG 1.1//EN" "http://www.w3.org/Graphics/SVG/1.1/DTD/svg11.dtd">
<svg version="1.1" id="图层_1" xmlns="http://www.w3.org/2000/svg" xmlns:xlink="http://www.w3.org/1999/xlink" x="0px" y="0px"
	 viewBox="0 0 1000 1000" style="enable-background:new 0 0 1000 1000;" xml:space="preserve">
<style type="text/css">
	.st0{fill:#020000;}
	.st1{fill-rule:evenodd;clip-rule:evenodd;}
	.st2{fill:#020202;}
	.st3{fill:#5A9BFD;stroke:#5A9BFD;stroke-width:40;stroke-linecap:round;stroke-miterlimit:10;}
	.st4{fill:none;stroke:#FFFFFF;stroke-width:40;stroke-linecap:round;stroke-miterlimit:10;}
	.st5{fill:none;stroke:#020000;stroke-width:50;stroke-linecap:round;stroke-miterlimit:10;}
	.st6{fill:none;}
	.st7{fill:none;stroke:#000000;stroke-width:50;stroke-linecap:round;stroke-linejoin:round;stroke-miterlimit:10;}
</style>
<g>
	<path class="st0" d="M815.5,310.6H499.9c-13.8,0-25-11.2-25-25s11.2-25,25-25h315.5c13.8,0,25,11.2,25,25S829.3,310.6,815.5,310.6z
		"/>
</g>
<g>
	<path class="st0" d="M308.5,310.6H200.2c-13.8,0-25-11.2-25-25s11.2-25,25-25h108.3c13.8,0,25,11.2,25,25S322.3,310.6,308.5,310.6z
		"/>
</g>
<g>
	<path class="st0" d="M815.5,539H643.9c-13.8,0-25-11.2-25-25s11.2-25,25-25h171.6c13.8,0,25,11.2,25,25S829.3,539,815.5,539z"/>
</g>
<g>
	<path class="st0" d="M455.9,539H200.2c-13.8,0-25-11.2-25-25s11.2-25,25-25h255.8c13.8,0,25,11.2,25,25S469.7,539,455.9,539z"/>
</g>
<g>
	<path class="st0" d="M815.5,773.7H586.1c-13.8,0-25-11.2-25-25s11.2-25,25-25h229.4c13.8,0,25,11.2,25,25S829.3,773.7,815.5,773.7z
		"/>
</g>
<g>
	<path class="st0" d="M398.4,773.7H200.2c-13.8,0-25-11.2-25-25s11.2-25,25-25h198.2c13.8,0,25,11.2,25,25S412.2,773.7,398.4,773.7z
		"/>
</g>
<g>
	<path class="st0" d="M403.9,398.7c-61.9,0-112.2-50.3-112.2-112.2s50.3-112.2,112.2-112.2s112.2,50.3,112.2,112.2
		S465.8,398.7,403.9,398.7z M403.9,224.2c-34.3,0-62.2,27.9-62.2,62.2s27.9,62.2,62.2,62.2s62.2-27.9,62.2-62.2
		S438.2,224.2,403.9,224.2z"/>
</g>
<g>
	<path class="st0" d="M550.6,623.1c-61.9,0-112.2-50.3-112.2-112.2s50.3-112.2,112.2-112.2c61.9,0,112.2,50.3,112.2,112.2
		S612.5,623.1,550.6,623.1z M550.6,448.6c-34.3,0-62.2,27.9-62.2,62.2s27.9,62.2,62.2,62.2s62.2-27.9,62.2-62.2
		S584.9,448.6,550.6,448.6z"/>
</g>
<g>
	<path class="st0" d="M491.2,860.9c-61.9,0-112.2-50.3-112.2-112.2c0-61.9,50.3-112.2,112.2-112.2s112.2,50.3,112.2,112.2
		C603.4,810.6,553,860.9,491.2,860.9z M491.2,686.5c-34.3,0-62.2,27.9-62.2,62.2c0,34.3,27.9,62.2,62.2,62.2s62.2-27.9,62.2-62.2
		C553.4,714.4,525.5,686.5,491.2,686.5z"/>
</g>
</svg>
