<?xml version="1.0" encoding="utf-8"?>
<!-- Generator: Adobe Illustrator 18.0.0, SVG Export Plug-In . SVG Version: 6.00 Build 0)  -->
<!DOCTYPE svg PUBLIC "-//W3C//DTD SVG 1.1//EN" "http://www.w3.org/Graphics/SVG/1.1/DTD/svg11.dtd">
<svg version="1.1" id="图层_1" xmlns="http://www.w3.org/2000/svg" xmlns:xlink="http://www.w3.org/1999/xlink" x="0px" y="0px"
	 viewBox="0 0 1000 1000" style="enable-background:new 0 0 1000 1000;" xml:space="preserve">
<style type="text/css">
	.st0{fill:#020000;}
	.st1{fill-rule:evenodd;clip-rule:evenodd;}
	.st2{fill:#020202;}
	.st3{fill:#5A9BFD;stroke:#5A9BFD;stroke-width:40;stroke-linecap:round;stroke-miterlimit:10;}
	.st4{fill:none;stroke:#FFFFFF;stroke-width:40;stroke-linecap:round;stroke-miterlimit:10;}
	.st5{fill:none;stroke:#020000;stroke-width:50;stroke-linecap:round;stroke-miterlimit:10;}
	.st6{fill:none;}
	.st7{fill:none;stroke:#000000;stroke-width:50;stroke-linecap:round;stroke-linejoin:round;stroke-miterlimit:10;}
</style>
<g>
	<path d="M501,914.5c-56.9,0-112.1-11.1-164.1-33.1c-50.2-21.2-95.3-51.6-134-90.3c-38.7-38.7-69.1-83.8-90.3-134
		c-22-52-33.1-107.2-33.1-164.1S90.7,380.9,112.7,329c21.2-50.2,51.6-95.3,90.3-134c38.7-38.7,83.8-69.1,134-90.3
		c52-22,107.2-33.1,164.1-33.1s112.1,11.1,164.1,33.1c50.2,21.2,95.3,51.6,134,90.3c38.7,38.7,69.1,83.8,90.3,134
		c22,52,33.1,107.2,33.1,164.1s-11.1,112.1-33.1,164.1c-21.2,50.2-51.6,95.3-90.3,134c-38.7,38.7-83.8,69.1-134,90.3
		C613.1,903.3,557.9,914.5,501,914.5z M501,121.5c-204.8,0-371.5,166.6-371.5,371.5S296.2,864.5,501,864.5S872.5,697.8,872.5,493
		S705.8,121.5,501,121.5z"/>
</g>
<g>
	<path d="M409.4,667.3c-6.4,0-12.8-2.4-17.7-7.3L236.5,504.7c-9.8-9.8-9.8-25.6,0-35.4c9.8-9.8,25.6-9.8,35.4,0l137.8,137.8
		L704.1,322c9.9-9.6,25.7-9.4,35.4,0.6c9.6,9.9,9.4,25.7-0.6,35.4L426.8,660.3C421.9,665,415.7,667.3,409.4,667.3z"/>
</g>
</svg>
