<?xml version="1.0" encoding="utf-8"?>
<!-- Generator: Adobe Illustrator 18.0.0, SVG Export Plug-In . SVG Version: 6.00 Build 0)  -->
<!DOCTYPE svg PUBLIC "-//W3C//DTD SVG 1.1//EN" "http://www.w3.org/Graphics/SVG/1.1/DTD/svg11.dtd">
<svg version="1.1" id="图层_1" xmlns="http://www.w3.org/2000/svg" xmlns:xlink="http://www.w3.org/1999/xlink" x="0px" y="0px"
	 viewBox="0 0 1000 1000" style="enable-background:new 0 0 1000 1000;" xml:space="preserve">
<style type="text/css">
	.st0{fill:#020000;}
	.st1{fill-rule:evenodd;clip-rule:evenodd;}
	.st2{fill:#020202;}
	.st3{fill:#5A9BFD;stroke:#5A9BFD;stroke-width:40;stroke-linecap:round;stroke-miterlimit:10;}
	.st4{fill:none;stroke:#FFFFFF;stroke-width:40;stroke-linecap:round;stroke-miterlimit:10;}
	.st5{fill:none;stroke:#020000;stroke-width:50;stroke-linecap:round;stroke-miterlimit:10;}
	.st6{fill:none;}
	.st7{fill:none;stroke:#000000;stroke-width:50;stroke-linecap:round;stroke-linejoin:round;stroke-miterlimit:10;}
</style>
<g>
	<path class="st0" d="M505.7,929.5c-57.1,0-112.4-11.2-164.6-33.2c-50.4-21.3-95.6-51.8-134.4-90.6c-38.8-38.8-69.3-84-90.6-134.4
		c-22.1-52.1-33.2-107.5-33.2-164.6s11.2-112.4,33.2-164.6c21.3-50.4,51.8-95.6,90.6-134.4c38.8-38.8,84-69.3,134.4-90.6
		c52.1-22.1,107.5-33.2,164.6-33.2s112.4,11.2,164.6,33.2c50.4,21.3,95.6,51.8,134.4,90.6c38.8,38.8,69.3,84,90.6,134.4
		c22.1,52.1,33.2,107.5,33.2,164.6s-11.2,112.4-33.2,164.6c-21.3,50.4-51.8,95.6-90.6,134.4c-38.8,38.8-84,69.3-134.4,90.6
		C618.2,918.4,562.8,929.5,505.7,929.5z M505.7,133.9c-205.6,0-372.8,167.2-372.8,372.8s167.2,372.8,372.8,372.8
		s372.8-167.2,372.8-372.8S711.3,133.9,505.7,133.9z"/>
</g>
<g>
	<path class="st0" d="M505.7,596.6c-49.6,0-89.9-40.3-89.9-89.9s40.3-89.9,89.9-89.9s89.9,40.3,89.9,89.9S555.3,596.6,505.7,596.6z
		 M505.7,466.8c-22,0-39.9,17.9-39.9,39.9s17.9,39.9,39.9,39.9c22,0,39.9-17.9,39.9-39.9S527.7,466.8,505.7,466.8z"/>
</g>
<g>
	<path class="st0" d="M504.3,465.6c-13.8,0-25-11.2-25-25V189.7c0-13.8,11.2-25,25-25c13.8,0,25,11.2,25,25v250.9
		C529.3,454.4,518.1,465.6,504.3,465.6z"/>
</g>
<g>
	<path class="st0" d="M824.4,531.7H573.5c-13.8,0-25-11.2-25-25s11.2-25,25-25h250.9c13.8,0,25,11.2,25,25S838.2,531.7,824.4,531.7z
		"/>
</g>
<g>
	<circle class="st1" cx="231.2" cy="348.2" r="23.3"/>
	<path class="st0" d="M231.2,374c-9.2,0-17.7-4.9-22.3-12.9c-3.4-6-4.4-12.9-2.6-19.6c1.8-6.6,6-12.2,12-15.6
		c3.9-2.3,8.4-3.5,12.9-3.5c9.2,0,17.7,4.9,22.3,12.9c7.1,12.3,2.9,28.1-9.4,35.2C240.2,372.8,235.7,374,231.2,374z M231.2,327.4
		c-3.6,0-7.2,1-10.4,2.8c-4.8,2.8-8.2,7.3-9.7,12.6s-0.7,11,2.1,15.8c3.7,6.4,10.6,10.4,18,10.4c3.6,0,7.2-1,10.4-2.8
		c9.9-5.7,13.3-18.5,7.6-28.4C245.5,331.4,238.6,327.4,231.2,327.4z"/>
</g>
<g>
	<circle class="st1" cx="231.2" cy="665.2" r="23.3"/>
	<path class="st0" d="M231.2,691c-14.2,0-25.8-11.6-25.8-25.8c0-14.2,11.6-25.8,25.8-25.8S257,651,257,665.2
		C257,679.4,245.4,691,231.2,691z M231.2,644.4c-11.5,0-20.8,9.3-20.8,20.8s9.3,20.8,20.8,20.8s20.8-9.3,20.8-20.8
		S242.6,644.4,231.2,644.4z"/>
</g>
<g>
	<circle class="st1" cx="505.7" cy="823.7" r="23.3"/>
	<path class="st0" d="M505.7,849.5c-4.5,0-8.9-1.2-12.9-3.5c-12.3-7.1-16.5-22.9-9.4-35.2c4.6-8,13.2-12.9,22.3-12.9
		c4.5,0,8.9,1.2,12.9,3.5c12.3,7.1,16.5,22.9,9.4,35.2C523.4,844.5,514.9,849.5,505.7,849.5z M505.7,802.9c-7.4,0-14.3,4-18,10.4
		c-5.7,9.9-2.3,22.6,7.6,28.4c3.2,1.8,6.7,2.8,10.4,2.8c7.4,0,14.3-4,18-10.4c5.7-9.9,2.3-22.6-7.6-28.4
		C512.9,803.9,509.4,802.9,505.7,802.9z"/>
</g>
<g>
	<circle class="st1" cx="780.2" cy="665.2" r="23.3"/>
	<path class="st0" d="M780.2,691c-9.2,0-17.8-4.9-22.3-12.9c-7.1-12.3-2.9-28.1,9.4-35.2c3.9-2.3,8.4-3.5,12.9-3.5
		c9.2,0,17.8,4.9,22.3,12.9c7.1,12.3,2.9,28.1-9.4,35.2C789.2,689.8,784.7,691,780.2,691z M780.2,644.4c-3.6,0-7.2,1-10.4,2.8
		c-9.9,5.7-13.3,18.5-7.6,28.4c3.7,6.4,10.6,10.4,18,10.4c3.6,0,7.2-1,10.4-2.8c9.9-5.7,13.3-18.5,7.6-28.4
		C794.5,648.4,787.6,644.4,780.2,644.4z"/>
</g>
<g>
	<circle class="st1" cx="780.2" cy="348.2" r="23.3"/>
	<path class="st0" d="M780.2,374c-14.2,0-25.8-11.6-25.8-25.8c0-14.2,11.6-25.8,25.8-25.8c14.2,0,25.8,11.6,25.8,25.8
		C806,362.4,794.4,374,780.2,374z M780.2,327.4c-11.5,0-20.8,9.3-20.8,20.8s9.3,20.8,20.8,20.8c11.5,0,20.8-9.3,20.8-20.8
		S791.7,327.4,780.2,327.4z"/>
</g>
</svg>
