<?xml version="1.0" encoding="utf-8"?>
<!-- Generator: Adobe Illustrator 18.0.0, SVG Export Plug-In . SVG Version: 6.00 Build 0)  -->
<!DOCTYPE svg PUBLIC "-//W3C//DTD SVG 1.1//EN" "http://www.w3.org/Graphics/SVG/1.1/DTD/svg11.dtd">
<svg version="1.1" id="图层_1" xmlns="http://www.w3.org/2000/svg" xmlns:xlink="http://www.w3.org/1999/xlink" x="0px" y="0px"
	 viewBox="0 0 1000 1000" enable-background="new 0 0 1000 1000" xml:space="preserve">
<g>
	<path fill="#020000" d="M163.3,597.5c-13.8,0-25-11.2-25-25c0-82.5,29.7-162.3,83.7-224.6c29.7-34.3,65.2-61.9,105.6-82.2
		c12.3-6.2,27.4-1.2,33.6,11.1s1.2,27.4-11.1,33.6c-34.5,17.3-64.9,40.9-90.3,70.2c-46.1,53.2-71.5,121.3-71.5,191.8
		C188.3,586.3,177.1,597.5,163.3,597.5z"/>
</g>
<g>
	<path fill="#020000" d="M481.3,915.5c-74.9,0-146.1-23.7-205.8-68.6c-11-8.3-13.3-24-5-35c8.3-11,24-13.3,35-5
		c51,38.3,111.8,58.6,175.8,58.6c58.4,0,114.8-17.1,163.1-49.5c11.5-7.7,27-4.6,34.7,6.8c7.7,11.5,4.6,27-6.8,34.7
		C615.7,895.5,549.7,915.5,481.3,915.5z"/>
</g>
<g>
	<path fill="#020000" d="M798.3,624.2c-0.7,0-1.4,0-2.1-0.1c-13.8-1.1-24-13.2-22.8-27c0.7-8.1,1-16.4,1-24.7
		c0-113.2-66.3-217.4-168.9-265.5c-12.5-5.9-17.9-20.7-12-33.2s20.7-17.9,33.2-12C684.9,289,734.2,332,769.3,386
		c36,55.5,55.1,120,55.1,186.5c0,9.6-0.4,19.3-1.2,28.8C822.1,614.4,811.1,624.2,798.3,624.2z"/>
</g>
<g>
	<path fill="#020000" d="M206.7,819.9c-58.9,0-106.8-47.9-106.8-106.8c0-58.9,47.9-106.8,106.8-106.8s106.8,47.9,106.8,106.8
		C313.5,772,265.6,819.9,206.7,819.9z M206.7,656.3c-31.3,0-56.8,25.5-56.8,56.8s25.5,56.8,56.8,56.8s56.8-25.5,56.8-56.8
		S238,656.3,206.7,656.3z"/>
</g>
<g>
	<path fill="#020000" d="M478.8,359.9C419.9,359.9,372,312,372,253.1s47.9-106.8,106.8-106.8c58.9,0,106.8,47.9,106.8,106.8
		S537.7,359.9,478.8,359.9z M478.8,196.3c-31.3,0-56.8,25.5-56.8,56.8s25.5,56.8,56.8,56.8s56.8-25.5,56.8-56.8
		S510.1,196.3,478.8,196.3z"/>
</g>
<g>
	<path fill="#020000" d="M750.8,835.9C691.9,835.9,644,788,644,729.1c0-58.9,47.9-106.8,106.8-106.8c58.9,0,106.8,47.9,106.8,106.8
		C857.7,788,809.7,835.9,750.8,835.9z M750.8,672.3c-31.3,0-56.8,25.5-56.8,56.8s25.5,56.8,56.8,56.8s56.8-25.5,56.8-56.8
		S782.2,672.3,750.8,672.3z"/>
</g>
</svg>
