<?xml version="1.0" encoding="utf-8"?>
<!-- Generator: Adobe Illustrator 18.0.0, SVG Export Plug-In . SVG Version: 6.00 Build 0)  -->
<!DOCTYPE svg PUBLIC "-//W3C//DTD SVG 1.1//EN" "http://www.w3.org/Graphics/SVG/1.1/DTD/svg11.dtd">
<svg version="1.1" id="图层_1" xmlns="http://www.w3.org/2000/svg" xmlns:xlink="http://www.w3.org/1999/xlink" x="0px" y="0px"
	 viewBox="0 0 1000 1000" style="enable-background:new 0 0 1000 1000;" xml:space="preserve">
<style type="text/css">
	.st0{fill:#020000;}
	.st1{fill-rule:evenodd;clip-rule:evenodd;}
	.st2{fill:#020202;}
	.st3{fill:#5A9BFD;stroke:#5A9BFD;stroke-width:40;stroke-linecap:round;stroke-miterlimit:10;}
	.st4{fill:none;stroke:#FFFFFF;stroke-width:40;stroke-linecap:round;stroke-miterlimit:10;}
	.st5{fill:none;stroke:#020000;stroke-width:50;stroke-linecap:round;stroke-miterlimit:10;}
	.st6{fill:none;}
	.st7{fill:none;stroke:#000000;stroke-width:50;stroke-linecap:round;stroke-linejoin:round;stroke-miterlimit:10;}
</style>
<g>
	<path d="M549.7,825.2c-4.2,0-8.4-1-12.3-3.3c-12-6.8-16.2-22.1-9.4-34.1l221.2-390c5.7-10.1,9.4-20.8,11-31.7
		c9.2-65.1-11.9-127.3-58-170.6c-46.3-43.6-111.2-62-173.5-49.2c-51.8,10.6-96.4,43.9-122.1,91.4L202.8,613
		c-6.6,12.1-21.8,16.6-33.9,10c-12.1-6.6-16.6-21.8-10-33.9l203.8-375.3c32.8-60.4,89.7-102.9,156-116.5
		c78.2-16,159.7,7.1,217.8,61.8c58.1,54.6,84.7,132.6,73.2,214c-2.4,17.2-8.2,33.8-17,49.4l-221.2,390
		C566.9,820.6,558.4,825.2,549.7,825.2z"/>
</g>
<g>
	<path d="M306.6,693.9c-3.9,0-7.9-0.9-11.6-2.9c-12.2-6.4-16.9-21.5-10.5-33.7l197.1-375.9c6.4-12.2,21.5-16.9,33.7-10.5
		c12.2,6.4,16.9,21.5,10.5,33.7L328.8,680.5C324.3,689,315.6,693.9,306.6,693.9z"/>
</g>
<g>
	<path d="M425.4,779.1c-3.9,0-7.9-0.9-11.6-2.9c-12.2-6.4-17-21.5-10.5-33.7l206.8-394.9c6.4-12.2,21.5-17,33.7-10.5
		c12.2,6.4,17,21.5,10.5,33.7L447.6,765.7C443.1,774.2,434.4,779.1,425.4,779.1z"/>
</g>
<g>
	<path d="M633.8,381.8c-3.3,0-6.7-0.7-9.9-2c-12.7-5.5-18.5-20.2-13.1-32.9c1.9-4.4,3.1-9.1,3.6-14c2.7-26.2-16.4-49.7-42.6-52.5
		c-20.9-2.2-40.5,9.3-48.8,28.6c-5.5,12.7-20.2,18.5-32.9,13.1c-12.7-5.5-18.5-20.2-13.1-32.9c8.2-19,21.9-34.7,39.8-45.3
		c18.2-10.9,39-15.4,60.2-13.2c53.6,5.6,92.7,53.8,87.1,107.4c-1,9.9-3.5,19.5-7.4,28.6C652.7,376.1,643.4,381.8,633.8,381.8z"/>
</g>
<g>
	<path d="M310.2,833.6c-92.9,0-168.5-75.6-168.5-168.5c0-24.5,8.3-55.4,16-73.8c5.4-12.7,20-18.7,32.7-13.3
		c12.7,5.4,18.7,20,13.3,32.7c-6,14.2-12.1,38.4-12.1,54.4c0,65.3,53.1,118.5,118.5,118.5c39.4,0,74.1-16.2,95.1-44.4
		c8.2-11.1,23.9-13.4,35-5.1c11.1,8.2,13.4,23.9,5.1,35C414.9,810.1,365.6,833.6,310.2,833.6z"/>
</g>
</svg>
