<?xml version="1.0" encoding="utf-8"?>
<!-- Generator: Adobe Illustrator 18.0.0, SVG Export Plug-In . SVG Version: 6.00 Build 0)  -->
<!DOCTYPE svg PUBLIC "-//W3C//DTD SVG 1.1//EN" "http://www.w3.org/Graphics/SVG/1.1/DTD/svg11.dtd">
<svg version="1.1" id="图层_1" xmlns="http://www.w3.org/2000/svg" xmlns:xlink="http://www.w3.org/1999/xlink" x="0px" y="0px"
	 viewBox="0 0 1000 1000" style="enable-background:new 0 0 1000 1000;" xml:space="preserve">
<style type="text/css">
	.st0{fill:#040000;}
</style>
<g>
	<path class="st0" d="M499.9,903.8c-105.5,0-205.4-40.5-281.1-113.9c-75.6-73.3-119-171.5-122.4-276.6
		c-0.4-13.8,10.4-25.3,24.2-25.8c13.8-0.4,25.3,10.4,25.8,24.2c6.2,191.9,161.5,342.1,353.6,342.1c190.2,0,345.5-148.8,353.4-338.7
		c0.2-5,0.3-10.1,0.3-15.1c0-195.1-158.7-353.8-353.8-353.8c-151.5,0-286.1,96.3-334.9,239.6c-4.5,13.1-18.7,20.1-31.7,15.6
		c-13.1-4.5-20.1-18.7-15.6-31.7c13.4-39.4,32.8-76.3,57.7-109.8c24.6-33.1,53.9-62.2,87.3-86.5c69.3-50.4,151.4-77.1,237.3-77.1
		c54.5,0,107.4,10.7,157.2,31.7c48.1,20.3,91.3,49.4,128.3,86.5c37.1,37.1,66.2,80.3,86.5,128.3c21.1,49.8,31.7,102.7,31.7,157.2
		c0,5.7-0.1,11.5-0.4,17.2c-4.4,104.2-48.3,201.5-123.6,273.9C704.1,863.8,604.8,903.8,499.9,903.8z"/>
</g>
<g>
	<path class="st0" d="M637.1,667.7c-0.1,0-0.2,0-0.3,0c-10.1-0.1-19.1-6.3-22.9-15.7l-123-305.8L388.6,584.9
		c-3.7,8.6-11.8,14.4-21.1,15.1c-9.3,0.7-18.2-3.9-23.1-11.8l-76.5-124l-42,65.4c-4.6,7.2-12.5,11.5-21,11.5h-81.1
		c-13.8,0-25-11.2-25-25c0-13.8,11.2-25,25-25h67.4l56.1-87.3c4.6-7.2,12.7-11.5,21.3-11.5c8.6,0.1,16.5,4.6,21,11.9l72,116.8
		l107-249.7c3.9-9.2,13-15.2,23-15.2c0.1,0,0.2,0,0.3,0c10.1,0.1,19.1,6.3,22.9,15.7L638,577.9l64.3-148c3.6-8.3,11.4-14,20.3-14.9
		c9-0.9,17.7,3,23,10.4l46.8,65.8h69.1c13.8,0,25,11.2,25,25c0,13.8-11.2,25-25,25h-82c-8.1,0-15.7-3.9-20.4-10.5l-28.6-40.2
		L660,652.7C656,661.8,647,667.7,637.1,667.7z"/>
</g>
</svg>
