<?xml version="1.0" encoding="utf-8"?>
<!-- Generator: Adobe Illustrator 18.0.0, SVG Export Plug-In . SVG Version: 6.00 Build 0)  -->
<!DOCTYPE svg PUBLIC "-//W3C//DTD SVG 1.1//EN" "http://www.w3.org/Graphics/SVG/1.1/DTD/svg11.dtd">
<svg version="1.1" id="图层_1" xmlns="http://www.w3.org/2000/svg" xmlns:xlink="http://www.w3.org/1999/xlink" x="0px" y="0px"
	 viewBox="0 0 1000 1000" style="enable-background:new 0 0 1000 1000;" xml:space="preserve">
<style type="text/css">
	.st0{fill:#020000;}
	.st1{fill-rule:evenodd;clip-rule:evenodd;}
	.st2{fill:#020202;}
	.st3{fill:#5A9BFD;stroke:#5A9BFD;stroke-width:40;stroke-linecap:round;stroke-miterlimit:10;}
	.st4{fill:none;stroke:#FFFFFF;stroke-width:40;stroke-linecap:round;stroke-miterlimit:10;}
	.st5{fill:none;stroke:#020000;stroke-width:50;stroke-linecap:round;stroke-miterlimit:10;}
	.st6{fill:none;}
	.st7{fill:none;stroke:#000000;stroke-width:50;stroke-linecap:round;stroke-linejoin:round;stroke-miterlimit:10;}
</style>
<g>
	<path d="M743.6,824H259.2c-43.5,0-78.8-35.4-78.8-78.8V254.4c0-43.5,35.4-78.8,78.8-78.8h83.4c13.8,0,25,11.2,25,25s-11.2,25-25,25
		h-83.4c-15.9,0-28.8,12.9-28.8,28.8v490.8c0,15.9,12.9,28.8,28.8,28.8h484.5c15.9,0,28.8-12.9,28.8-28.8V254.4
		c0-15.9-12.9-28.8-28.8-28.8h-91.1c-13.8,0-25-11.2-25-25s11.2-25,25-25h91.1c43.5,0,78.8,35.4,78.8,78.8v490.8
		C822.5,788.6,787.1,824,743.6,824z"/>
</g>
<g>
	<path d="M642.5,320.9H360.9c-13.8,0-25-11.2-25-25V143.7c0-13.8,11.2-25,25-25h48c13.8,0,25,11.2,25,25s-11.2,25-25,25h-23v102.2
		h231.6V168.7h-24.9c-13.8,0-25-11.2-25-25s11.2-25,25-25h49.9c13.8,0,25,11.2,25,25v152.2C667.5,309.7,656.3,320.9,642.5,320.9z"/>
</g>
<g>
	<path d="M673.2,461.7H332c-13.8,0-25-11.2-25-25s11.2-25,25-25h341.2c13.8,0,25,11.2,25,25S687,461.7,673.2,461.7z"/>
</g>
<g>
	<path d="M673.2,571.9H332c-13.8,0-25-11.2-25-25s11.2-25,25-25h341.2c13.8,0,25,11.2,25,25S687,571.9,673.2,571.9z"/>
</g>
<g>
	<path d="M673.2,686.2H332c-13.8,0-25-11.2-25-25s11.2-25,25-25h341.2c13.8,0,25,11.2,25,25S687,686.2,673.2,686.2z"/>
</g>
<g>
	<path d="M413.7,164.2c-6.2,0-12.4-2.3-17.2-6.9c-10-9.5-10.4-25.3-0.9-35.3c26.8-28.2,63.1-44.3,102-45.3
		c38.9-1,75.9,13.3,104.1,40.1c10,9.5,10.4,25.3,0.9,35.3s-25.3,10.4-35.3,0.9c-18.6-17.6-42.8-27-68.4-26.4
		c-25.5,0.6-49.3,11.2-67,29.8C426.9,161.6,420.3,164.2,413.7,164.2z"/>
</g>
</svg>
