<?xml version="1.0" encoding="utf-8"?>
<!-- Generator: Adobe Illustrator 18.0.0, SVG Export Plug-In . SVG Version: 6.00 Build 0)  -->
<!DOCTYPE svg PUBLIC "-//W3C//DTD SVG 1.1//EN" "http://www.w3.org/Graphics/SVG/1.1/DTD/svg11.dtd">
<svg version="1.1" id="图层_1" xmlns="http://www.w3.org/2000/svg" xmlns:xlink="http://www.w3.org/1999/xlink" x="0px" y="0px"
	 viewBox="0 0 1000 1000" style="enable-background:new 0 0 1000 1000;" xml:space="preserve">
<style type="text/css">
	.st0{fill:#020000;}
	.st1{fill-rule:evenodd;clip-rule:evenodd;}
	.st2{fill:#020202;}
	.st3{fill:#5A9BFD;stroke:#5A9BFD;stroke-width:40;stroke-linecap:round;stroke-miterlimit:10;}
	.st4{fill:none;stroke:#FFFFFF;stroke-width:40;stroke-linecap:round;stroke-miterlimit:10;}
	.st5{fill:none;stroke:#020000;stroke-width:50;stroke-linecap:round;stroke-miterlimit:10;}
	.st6{fill:none;}
	.st7{fill:none;stroke:#000000;stroke-width:50;stroke-linecap:round;stroke-linejoin:round;stroke-miterlimit:10;}
</style>
<g>
	<path d="M699.3,842H277.4c-54.6,0-99-44.4-99-99V310.1c0-54.6,44.4-99,99-99h228.8c13.8,0,25,11.2,25,25c0,13.8-11.2,25-25,25
		H277.4c-27,0-49,22-49,49V743c0,27,22,49,49,49h421.9c27,0,49-22,49-49V475.3c0-13.8,11.2-25,25-25s25,11.2,25,25V743
		C798.3,797.5,753.9,842,699.3,842z"/>
</g>
<g>
	<path d="M465,695.2c-6.6,0-12.9-2.6-17.6-7.3L319.1,560.6c-9.7-9.7-9.9-25.4-0.3-35.2l347.9-357c13.5-13.8,31.5-21.4,50.8-21.4
		c19,0,36.8,7.4,50.2,20.8l63.8,63.8c27.4,27.4,27.6,72.2,0.5,99.9L482.9,687.7c-4.7,4.8-11,7.5-17.7,7.5
		C465.1,695.2,465.1,695.2,465,695.2z M371.9,542.5l92.9,92.2l331.6-338.3c8-8.2,7.9-21.4-0.1-29.5l-63.8-63.8
		c-4-4-9.2-6.1-14.8-6.1c-5.7,0-11,2.3-15,6.3L371.9,542.5z"/>
</g>
<g>
	<path d="M289.9,736.8c-6.7,0-13.3-2.7-18.1-7.7c-6.1-6.4-8.4-15.5-6-24l46.8-169c3.7-13.3,17.5-21.1,30.8-17.4
		c13.3,3.7,21.1,17.5,17.4,30.8l-35.5,128.2c51.6-12.3,132.8-31.6,134-31.9c13.4-3.2,26.9,5.1,30.1,18.5
		c3.2,13.4-5.1,26.9-18.5,30.1c-6.6,1.6-162.3,38.6-175.3,41.6C293.6,736.6,291.7,736.8,289.9,736.8z"/>
</g>
<g>
	<path d="M772.8,379.7c-6.3,0-12.6-2.4-17.5-7.2L630.3,249.8c-9.9-9.7-10-25.5-0.3-35.4c9.7-9.9,25.5-10,35.4-0.3l125.1,122.8
		c9.9,9.7,10,25.5,0.3,35.4C785.8,377.2,779.3,379.7,772.8,379.7z"/>
</g>
</svg>
