<?xml version="1.0" encoding="utf-8"?>
<!-- Generator: Adobe Illustrator 18.0.0, SVG Export Plug-In . SVG Version: 6.00 Build 0)  -->
<!DOCTYPE svg PUBLIC "-//W3C//DTD SVG 1.1//EN" "http://www.w3.org/Graphics/SVG/1.1/DTD/svg11.dtd">
<svg version="1.1" id="图层_1" xmlns="http://www.w3.org/2000/svg" xmlns:xlink="http://www.w3.org/1999/xlink" x="0px" y="0px"
	 viewBox="0 0 1000 1000" style="enable-background:new 0 0 1000 1000;" xml:space="preserve">
<style type="text/css">
	.st0{fill:#040000;}
</style>
<g>
	<path class="st0" d="M507.6,909.3c-55.3,0-108.9-10.8-159.3-32.2c-48.7-20.6-92.5-50.1-130.1-87.7c-37.6-37.6-67.1-81.4-87.7-130.1
		C109,608.9,98.2,555.3,98.2,500s10.8-108.9,32.2-159.3c20.6-48.7,50.1-92.5,87.7-130.1c37.6-37.6,81.4-67.1,130.1-87.7
		c50.5-21.4,104.1-32.2,159.3-32.2s108.9,10.8,159.3,32.2c48.7,20.6,92.5,50.1,130.1,87.7c37.6,37.6,67.1,81.4,87.7,130.1
		c21.3,50.5,32.2,104.1,32.2,159.3c0,88.5-27.8,172.7-80.3,243.5c-5.1,6.9-14,9.8-22.2,7.1c-8.2-2.6-13.7-10.2-13.9-18.7l-0.8-55.4
		c-0.2-11,8.7-20.1,19.7-20.3c0.1,0,0.2,0,0.3,0c7.6,0,14.2,4.2,17.6,10.4c26-51.3,39.6-107.9,39.6-166.7
		c0-203.7-165.7-369.3-369.3-369.3c-203.7,0-369.3,165.7-369.3,369.3c0,203.7,165.7,369.3,369.3,369.3c74,0,145.4-21.8,206.5-63.1
		c9.2-6.2,21.6-3.8,27.8,5.4c6.2,9.2,3.8,21.6-5.4,27.8C668.7,885.2,589.6,909.3,507.6,909.3z"/>
</g>
<g>
	<path class="st0" d="M608,734.5H362.7c-2,0-4-0.3-6-0.9c-2.6-0.8-26.3-8.8-46.4-34.9c-17.8-23.2-36.3-65.9-23.3-138
		c5.6-31,19.9-65.5,39.2-94.5c18.8-28.3,41.9-51.1,67.6-66.9c-4.1-6.3-8.5-13.7-12.3-21.7c-23.1-47.6-6.5-72,5.6-82.3
		c13.4-11.5,27.6-17.3,42.3-17.3c9.9,0,18.3,2.7,25,6c11.3-9.4,27.8-18,48.2-18c17,0,34.5,5.8,52,17.3c4.3-0.5,9.7-0.9,15.8-0.9
		c25.1,0,44.6,7.4,56.4,21.4c11,13,14.7,30.3,11.1,51.3c-0.3,2-1,4-2,5.9c-1.6,3-12,22.9-25.1,40.5c12.5,8.4,29.1,20.9,46.1,37.8
		c45.4,45.1,72.5,100.4,78.5,160.1c0.9,6.7,6.4,56.9-25.7,94.8c-22.3,26.3-56.4,40-101.4,40.5C608.2,734.5,608.1,734.5,608,734.5z
		 M366.5,694.5h241.4c32.8-0.4,56.8-9.3,71.2-26.4c21.7-25.6,16.7-63.1,16.6-63.5c-0.1-0.4-0.1-0.7-0.1-1.1
		c-12-122.3-123.4-178.9-124.5-179.5c-6-3-10.1-8.7-10.9-15.4c-0.8-6.6,1.7-13.2,6.7-17.6c10.2-8.9,24.3-31.6,32-45.7
		c0.7-5.6,0.5-12.1-2.7-15.8c-3.9-4.6-13.3-7.2-25.8-7.2c-9.2,0-16.6,1.5-16.7,1.5c-5.6,1.1-11.4-0.1-15.9-3.5
		c-12.8-9.5-24.7-14.3-35.2-14.3c-18.4,0-28.7,15.2-28.8,15.3c-3.5,5.4-9.1,9.1-15.6,9.4c-6.4,0.3-12.3-2.1-16.3-7.1
		c-0.8-0.8-5.9-5.7-12.5-5.7c-4.9,0-10.3,2.6-16.3,7.6c-10.9,9.4,7.6,45.8,25.8,67.9c4,4.8,5.5,11.2,4,17.3
		c-1.4,6.1-5.6,11.2-11.4,13.7c-63.2,28-97.5,101.1-105.1,143.3C309.4,662.2,355.1,689.3,366.5,694.5z"/>
</g>
<g>
	<path class="st0" d="M497.4,536.2l-62.3-77.9c-6.9-8.6-5.5-21.2,3.1-28.1c8.6-6.9,21.2-5.5,28.1,3.1l34.3,42.9l44.1-44.5
		c7.8-7.8,20.4-7.9,28.3-0.1c7.8,7.8,7.9,20.4,0.1,28.3L497.4,536.2z"/>
</g>
<g>
	<path class="st0" d="M563.6,560.8H436.7c-11,0-20-9-20-20s9-20,20-20h126.9c11,0,20,9,20,20S574.7,560.8,563.6,560.8z"/>
</g>
<g>
	<path class="st0" d="M563.6,607.5H436.7c-11,0-20-9-20-20s9-20,20-20h126.9c11,0,20,9,20,20S574.7,607.5,563.6,607.5z"/>
</g>
<g>
	<path class="st0" d="M500.2,652.7c-10.9,0-19.8-8.7-20-19.7c0-0.3-0.5-34.2-0.8-67.9c-0.2-19.8-0.2-35.8-0.1-47.3
		c0.1-7.1,0.2-12.5,0.3-16.4c0.3-7.2,0.5-14,6.5-19.9c7.8-7.8,20.5-7.8,28.3,0c5.1,5,6.8,12.1,5.4,18.6c-0.8,11.1-0.4,75,0.5,132.3
		c0.2,11-8.6,20.1-19.7,20.3C500.4,652.7,500.3,652.7,500.2,652.7z"/>
</g>
</svg>
