<?xml version="1.0" encoding="utf-8"?>
<!-- Generator: Adobe Illustrator 18.0.0, SVG Export Plug-In . SVG Version: 6.00 Build 0)  -->
<!DOCTYPE svg PUBLIC "-//W3C//DTD SVG 1.1//EN" "http://www.w3.org/Graphics/SVG/1.1/DTD/svg11.dtd">
<svg version="1.1" id="图层_1" xmlns="http://www.w3.org/2000/svg" xmlns:xlink="http://www.w3.org/1999/xlink" x="0px" y="0px"
	 viewBox="0 0 1000 1000" style="enable-background:new 0 0 1000 1000;" xml:space="preserve">
<style type="text/css">
	.st0{fill:#040000;}
</style>
<g>
	<path class="st0" d="M128.4,403.6c-10.5,0-20.2-6.6-23.7-17.1c-4.4-13.1,2.7-27.3,15.8-31.6c4.3-1.4,4.3-1.4,40.6-1.5
		c19.5-0.1,48-0.1,84.7-0.1c61.9,0,147.9,0,255.8,0c183.7,0.1,369.5,0.3,371.3,0.3c13.8,0,25,11.2,25,25c0,13.8-11.2,25-25,25
		c0,0,0,0,0,0c-247.8-0.3-719.2-0.7-742.6-0.1C129.6,403.6,129,403.6,128.4,403.6z"/>
</g>
<g>
	<path class="st0" d="M793.1,430.5l-304.3-187c-2.3-1-4.5-2.3-6.4-3.9l-45.1-27.7c-15.2-9.3-35.2-6-46.6,7.8L247.4,394.1
		c-8.8,10.7-24.5,12.2-35.2,3.4c-10.7-8.8-12.2-24.5-3.4-35.2L352.2,188c13.2-16,31.7-26.8,52.2-30.2c20.5-3.4,41.5,0.7,59.2,11.5
		l40.7,25l144.4-22.1c36.9-5.7,72.2,16,83.8,51.5l0.2,0.7L793.1,430.5z M570.2,234.8l138.4,85L684.9,239
		c-4.1-12-16.1-19.3-28.6-17.3L570.2,234.8z"/>
</g>
<g>
	<path class="st0" d="M544.5,511.1H291.7c-13.8,0-25-11.2-25-25s11.2-25,25-25h252.8c13.8,0,25,11.2,25,25S558.3,511.1,544.5,511.1z
		"/>
</g>
<g>
	<path class="st0" d="M286.6,641.8c-8.1,0-16-3.9-20.8-11.1c-7.7-11.5-4.6-27,6.9-34.7c7.1-4.7,12-4.8,35.8-4.9
		c11.3-0.1,26.9,0,46.3,0.1c32.9,0.2,65.9,0.6,66.3,0.6c13.8,0.2,24.9,11.5,24.7,25.3c-0.2,13.7-11.3,24.7-25,24.7
		c-0.1,0-0.2,0-0.3,0c-55.9-0.7-118.2-1.1-129.3-0.4C289.6,641.7,288.1,641.8,286.6,641.8z"/>
</g>
<g>
	<path class="st0" d="M462,876.5H297.8c-56.5,0-102.4-45.9-102.4-102.4V387.2c0-13.8,11.2-25,25-25c13.8,0,25,11.2,25,25v386.9
		c0,28.9,23.5,52.4,52.4,52.4H462c13.8,0,25,11.2,25,25C487,865.3,475.8,876.5,462,876.5z"/>
</g>
<g>
	<path class="st0" d="M688.1,876.5h-47.3c-13.8,0-25-11.2-25-25c0-13.8,11.2-25,25-25h47.3c28.9,0,52.4-23.5,52.4-52.4V387.2
		c0-13.8,11.2-25,25-25c13.8,0,25,11.2,25,25v386.9C790.5,830.6,744.5,876.5,688.1,876.5z"/>
</g>
</svg>
